<svg width="28" height="28" viewBox="0 0 28 28" fill="none" xmlns="http://www.w3.org/2000/svg">
<path d="M23.333 14.3201C23.333 14.763 23.0038 15.1291 22.5767 15.1871L22.458 15.1951L4.95801 15.1951C4.47476 15.1951 4.08301 14.8033 4.08301 14.3201C4.08301 13.8771 4.41219 13.511 4.83928 13.4531L4.95801 13.4451L22.458 13.4451C22.9413 13.4451 23.333 13.8368 23.333 14.3201Z" fill="white"/>
<path d="M12.634 20.7286C12.9764 21.0695 12.9776 21.6236 12.6367 21.966C12.3267 22.2773 11.8406 22.3066 11.4975 22.0532L11.3992 21.9687L4.34088 14.9407C4.02864 14.6298 4.00024 14.142 4.25568 13.7989L4.34083 13.7006L11.3992 6.67144C11.7416 6.33044 12.2956 6.33159 12.6366 6.67401C12.9466 6.98529 12.9738 7.47146 12.719 7.81348L12.634 7.91144L6.19867 14.321L12.634 20.7286Z" fill="white"/>
</svg>
