<svg width="27" height="19" viewBox="0 0 27 19" fill="none" xmlns="http://www.w3.org/2000/svg">
<path d="M21.1272 7.89644C21.9382 8.71724 22.6173 9.65864 23.1403 10.6872C23.2895 11.0017 23.3103 11.362 23.1983 11.6916C23.0863 12.0213 22.8502 12.2943 22.5403 12.4527C22.2303 12.6112 21.8708 12.6427 21.538 12.5405C21.2052 12.4382 20.9253 12.2104 20.7577 11.9052C20.3616 11.1262 19.8479 10.4129 19.2345 9.79041C18.3183 8.87381 17.1979 8.18738 15.9651 7.78738C14.7324 7.38737 13.4224 7.28518 12.1425 7.48917C10.8627 7.69317 9.64934 8.19754 8.60203 8.96096C7.55472 9.72438 6.70321 10.7251 6.11731 11.8811C5.95247 12.1898 5.67333 12.4216 5.33967 12.5269C5.00602 12.6323 4.64437 12.6028 4.33219 12.4448C4.02001 12.2867 3.78212 12.0128 3.66946 11.6815C3.5568 11.3503 3.57833 10.9881 3.72944 10.6725C4.50631 9.13905 5.63549 7.81154 7.02443 6.79874C8.41338 5.78594 10.0225 5.11668 11.7201 4.84582C13.4176 4.57496 15.1551 4.71021 16.7903 5.24047C18.4254 5.77073 19.9117 6.68092 21.1272 7.89644ZM18.3846 11.9012C19.0003 12.5169 19.5063 13.2718 19.8596 14.0749C20.0021 14.4001 20.0097 14.7686 19.8805 15.0993C19.7514 15.43 19.4961 15.6959 19.171 15.8384C18.8458 15.9809 18.4773 15.9884 18.1466 15.8593C17.8159 15.7301 17.55 15.4749 17.4075 15.1497C17.1878 14.6456 16.8775 14.186 16.492 13.7938C15.6804 12.9824 14.5798 12.5265 13.4322 12.5265C12.2845 12.5265 11.1839 12.9824 10.3724 13.7938C9.99193 14.1802 9.68689 14.6341 9.47291 15.1323C9.40383 15.2954 9.30306 15.4432 9.17645 15.567C9.04984 15.6909 8.89991 15.7884 8.73534 15.8539C8.57077 15.9194 8.39484 15.9516 8.21775 15.9486C8.04065 15.9456 7.86591 15.9074 7.70366 15.8364C7.54141 15.7654 7.39486 15.6629 7.27252 15.5348C7.15019 15.4067 7.05448 15.2556 6.99097 15.0903C6.92745 14.9249 6.89738 14.7486 6.9025 14.5716C6.90762 14.3945 6.94783 14.2203 7.02079 14.0589C7.36841 13.255 7.86323 12.5232 8.47975 11.9012C9.79329 10.5879 11.5747 9.85008 13.4322 9.85008C15.2896 9.85008 17.0711 10.5879 18.3846 11.9012ZM24.6541 4.67201C25.3341 5.35196 25.9752 6.12695 26.5333 6.9354C26.7321 7.22763 26.8072 7.58659 26.7423 7.93398C26.6774 8.28137 26.4777 8.58898 26.1868 8.78972C25.896 8.99046 25.5375 9.06802 25.1897 9.00549C24.8419 8.94295 24.5329 8.7454 24.3302 8.45593C23.8617 7.77865 23.3236 7.12681 22.7615 6.56464C17.5788 1.38199 9.17577 1.38199 3.99178 6.56464C3.45772 7.0987 2.925 7.75054 2.43913 8.45192C2.23679 8.74372 1.92681 8.94319 1.5774 9.00644C1.22798 9.0697 0.867751 8.99156 0.575949 8.78922C0.284147 8.58687 0.0846767 8.2769 0.0214206 7.92748C-0.0418355 7.57807 0.0363037 7.21783 0.238648 6.92603C0.811523 6.09884 1.44463 5.32653 2.09915 4.67201C8.32716 -1.55734 18.4261 -1.55734 24.6541 4.67201ZM14.8068 15.57C15.1836 15.9468 15.3953 16.4579 15.3953 16.9908C15.3953 17.5237 15.1836 18.0348 14.8068 18.4116C14.43 18.7885 13.9189 19.0002 13.386 19.0002C12.8531 19.0002 12.342 18.7885 11.9652 18.4116C11.5884 18.0348 11.3767 17.5237 11.3767 16.9908C11.3767 16.4579 11.5884 15.9468 11.9652 15.57C12.342 15.1932 12.8531 14.9815 13.386 14.9815C13.9189 14.9815 14.43 15.1932 14.8068 15.57Z" fill="#1AADB6"/>
</svg>
