<svg width="32" height="32" viewBox="0 0 32 32" fill="none" xmlns="http://www.w3.org/2000/svg">
<path d="M27.9998 13.3332H9.33317V9.48387C9.33317 8.15454 10.2372 6.91987 11.5478 6.70387C11.9307 6.63873 12.3231 6.65786 12.6978 6.75993C13.0725 6.862 13.4204 7.04455 13.7173 7.29487C14.0142 7.54518 14.2529 7.85723 14.4169 8.20927C14.5808 8.56131 14.666 8.94487 14.6665 9.3332H17.3332C17.3325 8.58827 17.176 7.85172 16.8735 7.17094C16.5711 6.49016 16.1295 5.88023 15.5772 5.38038C15.0248 4.88054 14.374 4.50185 13.6664 4.26868C12.9589 4.03551 12.2105 3.95303 11.4692 4.02654C8.69717 4.29587 6.6665 6.7852 6.6665 9.57054V13.3332H3.99984C3.64622 13.3332 3.30708 13.4737 3.05703 13.7237C2.80698 13.9738 2.6665 14.3129 2.6665 14.6665V17.3332C2.6665 20.8079 4.8985 23.7639 7.99984 24.8665V29.3332H10.6665V25.3332H21.3332V29.3332H23.9998V24.8665C27.1012 23.7639 29.3332 20.8079 29.3332 17.3332V14.6665C29.3332 14.3129 29.1927 13.9738 28.9426 13.7237C28.6926 13.4737 28.3535 13.3332 27.9998 13.3332Z" fill="#1AADB6"/>
</svg>
