<svg width="32" height="32" viewBox="0 0 32 32" fill="none" xmlns="http://www.w3.org/2000/svg">
<path d="M22.6665 25.3333H25.3332V14.6667H17.3332V25.3333H19.9998V17.3333H22.6665V25.3333ZM3.99984 25.3333V5.33333C3.99984 4.97971 4.14031 4.64057 4.39036 4.39052C4.64041 4.14048 4.97955 4 5.33317 4H23.9998C24.3535 4 24.6926 4.14048 24.9426 4.39052C25.1927 4.64057 25.3332 4.97971 25.3332 5.33333V12H27.9998V25.3333H29.3332V28H2.6665V25.3333H3.99984ZM9.33317 14.6667V17.3333H11.9998V14.6667H9.33317ZM9.33317 20V22.6667H11.9998V20H9.33317ZM9.33317 9.33333V12H11.9998V9.33333H9.33317Z" fill="#1AADB6"/>
</svg>
