<svg width="27" height="27" viewBox="0 0 27 27" fill="none" xmlns="http://www.w3.org/2000/svg">
<path d="M13.5001 14.8501C14.3078 14.8501 15.0971 15.0915 15.7665 15.5435C16.4359 15.9955 16.9549 16.6373 17.2568 17.3864C17.5587 18.1356 17.6297 18.958 17.4606 19.7478C17.2916 20.5376 16.8902 21.2589 16.3081 21.8188L13.7296 24.3002H17.5501V27.0002H9.45006V24.6728L14.4356 19.8735C14.5965 19.7188 14.7165 19.5267 14.785 19.3144C14.8534 19.102 14.8682 18.876 14.8279 18.6565C14.7876 18.437 14.6936 18.231 14.5542 18.0567C14.4148 17.8825 14.2343 17.7456 14.029 17.6581C13.8237 17.5707 13.6 17.5355 13.3778 17.5558C13.1556 17.576 12.9418 17.6509 12.7557 17.774C12.5695 17.897 12.4168 18.0643 12.3111 18.2608C12.2054 18.4573 12.1501 18.677 12.1501 18.9001H9.45006C9.45006 17.826 9.87676 16.7958 10.6363 16.0363C11.3958 15.2768 12.4259 14.8501 13.5001 14.8501ZM21.6001 14.8501V20.2501H24.3002V14.8501H27.0002V27.0002H24.3002V22.9501H18.9001V14.8501H21.6001ZM2.70002 13.5001C2.69835 15.1195 3.06159 16.7186 3.76274 18.1784C4.46389 19.6382 5.48494 20.9212 6.75004 21.9322V25.1939C4.69696 24.0093 2.99214 22.3048 1.80717 20.252C0.622206 18.1992 -0.00109716 15.8704 1.44975e-06 13.5001H2.70002ZM13.5001 5.85966e-06C20.4999 5.85966e-06 26.2563 5.32849 26.9327 12.1501H24.2164C23.9534 10.0644 23.0875 8.10073 21.7248 6.49996C20.3621 4.89919 18.5619 3.73086 16.5449 3.13822C14.5279 2.54558 12.3819 2.5544 10.3698 3.1636C8.35781 3.77279 6.56727 4.95588 5.21778 6.5678L8.10005 9.45006H1.44975e-06V1.35001L3.30347 4.65213C4.56962 3.19032 6.13564 2.01822 7.89508 1.21549C9.65453 0.412754 11.5662 -0.00179769 13.5001 5.85966e-06Z" fill="#1AADB6"/>
</svg>
