<svg width="28" height="28" viewBox="0 0 28 28" fill="none" xmlns="http://www.w3.org/2000/svg">
<path fill-rule="evenodd" clip-rule="evenodd" d="M13.8188 25.2715C9.51168 25.2715 5.8335 24.6013 5.8335 21.9171C5.8335 19.2328 9.48834 16.7549 13.8188 16.7549C18.1259 16.7549 21.8041 19.2088 21.8041 21.893C21.8041 24.5762 18.1493 25.2715 13.8188 25.2715Z" stroke="white" stroke-width="1.5" stroke-linecap="round" stroke-linejoin="round"/>
<path fill-rule="evenodd" clip-rule="evenodd" d="M13.8104 13.0357C16.6369 13.0357 18.9278 10.7448 18.9278 7.91829C18.9278 5.09177 16.6369 2.7998 13.8104 2.7998C10.9839 2.7998 8.69192 5.09177 8.69192 7.91829C8.68238 10.7353 10.9574 13.0262 13.7743 13.0357C13.7871 13.0357 13.7987 13.0357 13.8104 13.0357Z" stroke="white" stroke-width="1.5" stroke-linecap="round" stroke-linejoin="round"/>
</svg>
