<svg width="27" height="27" viewBox="0 0 27 27" fill="none" xmlns="http://www.w3.org/2000/svg">
<path fill-rule="evenodd" clip-rule="evenodd" d="M0 13.5203C0 6.40862 5.6835 0 13.527 0C21.195 0 27 6.28693 27 13.4797C27 21.8217 20.196 27 13.5 27C11.286 27 8.829 26.4051 6.858 25.2424C6.1695 24.8232 5.589 24.5123 4.8465 24.7556L2.1195 25.5669C1.431 25.7832 0.81 25.2424 1.0125 24.5123L1.917 21.4837C2.0655 21.0646 2.0385 20.6184 1.8225 20.2669C0.6615 18.1307 0 15.7917 0 13.5203ZM11.745 13.5203C11.745 14.4802 12.5145 15.2509 13.473 15.2644C14.4315 15.2644 15.201 14.4802 15.201 13.5338C15.201 12.5739 14.4315 11.8032 13.473 11.8032C12.528 11.7897 11.745 12.5739 11.745 13.5203ZM17.9685 13.5338C17.9685 14.4802 18.738 15.2644 19.6965 15.2644C20.655 15.2644 21.4245 14.4802 21.4245 13.5338C21.4245 12.5739 20.655 11.8032 19.6965 11.8032C18.738 11.8032 17.9685 12.5739 17.9685 13.5338ZM7.2495 15.2644C6.3045 15.2644 5.5215 14.4802 5.5215 13.5338C5.5215 12.5739 6.291 11.8032 7.2495 11.8032C8.208 11.8032 8.9775 12.5739 8.9775 13.5338C8.9775 14.4802 8.208 15.2509 7.2495 15.2644Z" fill="#1AADB6"/>
</svg>
