<svg width="18" height="18" viewBox="0 0 18 18" fill="none" xmlns="http://www.w3.org/2000/svg">
<path fill-rule="evenodd" clip-rule="evenodd" d="M5.7525 1.5H12.255C14.7975 1.5 16.5 3.285 16.5 5.94V12.0683C16.5 14.715 14.7975 16.5 12.255 16.5H5.7525C3.21 16.5 1.5 14.715 1.5 12.0683V5.94C1.5 3.285 3.21 1.5 5.7525 1.5ZM8.5725 11.2425L12.135 7.68C12.39 7.425 12.39 7.0125 12.135 6.75C11.88 6.495 11.46 6.495 11.205 6.75L8.1075 9.8475L6.795 8.535C6.54 8.28 6.12 8.28 5.865 8.535C5.61 8.79 5.61 9.2025 5.865 9.465L7.65 11.2425C7.7775 11.37 7.9425 11.43 8.1075 11.43C8.28 11.43 8.445 11.37 8.5725 11.2425Z" fill="#1AADB6"/>
</svg>
