<svg width="20" height="20" viewBox="0 0 20 20" fill="none" xmlns="http://www.w3.org/2000/svg">
<path fill-rule="evenodd" clip-rule="evenodd" d="M8.16972 12.7105C8.69011 13.0632 9.32434 13.2766 9.99923 13.2766C11.7881 13.2766 13.2436 11.808 13.2436 10.0031C13.2436 9.32211 13.0321 8.68218 12.6825 8.15711L11.7962 9.05137C11.9426 9.33032 12.0239 9.65849 12.0239 10.0031C12.0239 11.127 11.1132 12.0459 9.99923 12.0459C9.65772 12.0459 9.33247 11.9639 9.05601 11.8162L8.16972 12.7105ZM15.3577 5.45792C16.5367 6.54088 17.5368 8.00123 18.2849 9.75694C18.3499 9.91282 18.3499 10.0933 18.2849 10.241C16.5448 14.3267 13.4468 16.7716 9.99923 16.7716H9.9911C8.42178 16.7716 6.91752 16.2547 5.59214 15.3112L4.0147 16.9028C3.89273 17.0259 3.73824 17.0833 3.58375 17.0833C3.42926 17.0833 3.26663 17.0259 3.1528 16.9028C2.94952 16.6977 2.91699 16.3696 3.07962 16.1316L3.10401 16.0988L15.13 3.96475C15.1462 3.94834 15.1625 3.93193 15.1706 3.91552L15.1706 3.91552C15.1869 3.89911 15.2032 3.8827 15.2113 3.8663L15.9756 3.0951C16.2196 2.85718 16.6017 2.85718 16.8375 3.0951C17.0815 3.33302 17.0815 3.72682 16.8375 3.96475L15.3577 5.45792ZM6.74896 10.0063C6.74896 10.2196 6.77336 10.4329 6.80588 10.6298L3.79735 13.6654C2.98424 12.7137 2.27683 11.5651 1.71578 10.2442C1.65073 10.0965 1.65073 9.91602 1.71578 9.76014C3.45585 5.67443 6.55381 3.23777 9.99329 3.23777H10.0014C11.1642 3.23777 12.2944 3.51671 13.3352 4.04179L10.6194 6.782C10.4242 6.74918 10.2128 6.72457 10.0014 6.72457C8.20444 6.72457 6.74896 8.19313 6.74896 10.0063Z" fill="white"/>
</svg>
