<svg width="20" height="20" viewBox="0 0 20 20" fill="none" xmlns="http://www.w3.org/2000/svg">
<path fill-rule="evenodd" clip-rule="evenodd" d="M14.6026 6.16333V7.44111C16.0379 7.88912 17.0837 9.18844 17.0837 10.7403V14.8544C17.0837 16.7756 15.4909 18.3333 13.5272 18.3333H6.47432C4.50979 18.3333 2.91699 16.7756 2.91699 14.8544V10.7403C2.91699 9.18844 3.96362 7.88912 5.39806 7.44111V6.16333C5.40653 3.67898 7.46421 1.66666 9.98762 1.66666C12.5449 1.66666 14.6026 3.67898 14.6026 6.16333ZM10.0046 3.11586C11.7235 3.11586 13.1207 4.48225 13.1207 6.16333V7.26141H6.87993V6.14677C6.8884 4.47397 8.28559 3.11586 10.0046 3.11586ZM10.7413 13.7124C10.7413 14.1182 10.411 14.4412 9.99609 14.4412C9.58964 14.4412 9.25939 14.1182 9.25939 13.7124V11.874C9.25939 11.4765 9.58964 11.1536 9.99609 11.1536C10.411 11.1536 10.7413 11.4765 10.7413 11.874V13.7124Z" fill="white"/>
</svg>
