<svg width="24" height="24" viewBox="0 0 24 24" fill="none" xmlns="http://www.w3.org/2000/svg">
<path d="M20 5.79H20.5L20.5 5.78449L20 5.79ZM19.88 21.46L20.3197 21.6981L20.3212 21.6953L19.88 21.46ZM19.26 21.96L19.1179 21.4806L19.113 21.4821L19.26 21.96ZM18.47 21.86L18.7219 21.4281L18.708 21.42L18.6936 21.4128L18.47 21.86ZM11.99 18.62L12.2136 18.1728L11.9902 18.0611L11.7667 18.1726L11.99 18.62ZM5.5 21.86L5.2766 21.4125L5.26578 21.4183L5.5 21.86ZM15.07 1.5H8.9V2.5H15.07V1.5ZM20.5 5.78449C20.4833 4.26925 19.8533 3.16604 18.8219 2.46203C17.8173 1.7763 16.479 1.5 15.07 1.5V2.5C16.371 2.5 17.4827 2.7587 18.2581 3.28797C19.0067 3.79896 19.4867 4.59075 19.5 5.79551L20.5 5.78449ZM20.5 20.97V5.79H19.5V20.97H20.5ZM20.3212 21.6953C20.4421 21.4686 20.5 21.2171 20.5 20.97H19.5C19.5 21.0629 19.4779 21.1514 19.4388 21.2247L20.3212 21.6953ZM19.402 22.4394C19.7989 22.3218 20.1262 22.0553 20.3196 21.6981L19.4404 21.2219C19.3738 21.3447 19.2611 21.4382 19.118 21.4806L19.402 22.4394ZM18.2181 22.2919C18.5698 22.497 19.0038 22.562 19.407 22.4379L19.113 21.4821C18.9962 21.518 18.8502 21.503 18.7219 21.4281L18.2181 22.2919ZM11.7664 19.0672L18.2464 22.3072L18.6936 21.4128L12.2136 18.1728L11.7664 19.0672ZM5.72333 22.3074L12.2133 19.0674L11.7667 18.1726L5.27667 21.4126L5.72333 22.3074ZM5.01 22.49C5.27705 22.49 5.52802 22.4111 5.73422 22.3018L5.26578 21.4183C5.17398 21.4669 5.08295 21.49 5.01 21.49V22.49ZM3.5 20.97C3.5 21.7997 4.16747 22.49 5.01 22.49V21.49C4.73253 21.49 4.5 21.2603 4.5 20.97H3.5ZM3.5 5.79V20.97H4.5V5.79H3.5ZM8.9 1.5C7.49598 1.5 6.15742 1.77629 5.15507 2.4624C4.12523 3.16734 3.5 4.27263 3.5 5.79H4.5C4.5 4.58737 4.97477 3.79766 5.71993 3.2876C6.49258 2.75871 7.60402 2.5 8.9 2.5V1.5ZM15.75 9.12H8.22V10.12H15.75V9.12ZM16.03 8.83C16.03 8.99743 15.8993 9.12 15.75 9.12V10.12C16.4607 10.12 17.03 9.54057 17.03 8.83H16.03ZM15.75 8.54C15.8997 8.54 16.03 8.66198 16.03 8.83H17.03C17.03 8.11802 16.4603 7.54 15.75 7.54V8.54ZM8.22 8.54H15.75V7.54H8.22V8.54ZM7.94 8.83C7.94 8.66198 8.07029 8.54 8.22 8.54V7.54C7.50971 7.54 6.94 8.11802 6.94 8.83H7.94ZM8.22 9.12C8.0707 9.12 7.94 8.99744 7.94 8.83H6.94C6.94 9.54057 7.5093 10.12 8.22 10.12V9.12Z" fill="white"/>
</svg>
