<svg width="186" height="180" viewBox="0 0 186 180" fill="none" xmlns="http://www.w3.org/2000/svg">
<circle cx="95.4668" cy="90.5" r="70.5" fill="#1AADB6"/>
<circle cx="178.434" cy="27.5" r="7.5" fill="#76D39D"/>
<circle cx="20" cy="10" r="10" fill="#76D39D"/>
<circle cx="10" cy="133" r="5" fill="#76D39D"/>
<circle cx="165.5" cy="160.5" r="2.5" fill="#76D39D"/>
<path fill-rule="evenodd" clip-rule="evenodd" d="M84.8216 65.9164H106.135C114.469 65.9164 120.049 71.7672 120.049 80.4697V100.557C120.049 109.232 114.469 115.083 106.135 115.083H84.8216C76.4878 115.083 70.8828 109.232 70.8828 100.557V80.4697C70.8828 71.7672 76.4878 65.9164 84.8216 65.9164ZM94.0648 97.8501L105.742 86.173C106.578 85.3372 106.578 83.9851 105.742 83.1247C104.906 82.2889 103.529 82.2889 102.694 83.1247L92.5406 93.2776L88.2385 88.9755C87.4027 88.1397 86.026 88.1397 85.1902 88.9755C84.3543 89.8114 84.3543 91.1635 85.1902 92.0239L91.041 97.8501C91.4589 98.268 91.9998 98.4647 92.5406 98.4647C93.106 98.4647 93.6468 98.268 94.0648 97.8501Z" fill="white"/>
<circle cx="106.5" cy="4.5" r="2.5" fill="#76D39D"/>
<circle cx="62.5" cy="176.5" r="3.5" fill="#76D39D"/>
<circle cx="122" cy="171" r="1" fill="#76D39D"/>
<circle cx="170.5" cy="110.5" r="2.5" fill="#76D39D"/>
<circle cx="1" cy="75" r="1" fill="#76D39D"/>
</svg>
