<svg width="43" height="50" viewBox="0 0 43 50" fill="none" xmlns="http://www.w3.org/2000/svg">
<path fill-rule="evenodd" clip-rule="evenodd" d="M0 20.7944C0 9.29473 9.6097 0 21.2336 0C32.8903 0 42.5 9.29473 42.5 20.7944C42.5 26.5892 40.3925 31.9691 36.9237 36.5289C33.097 41.5588 28.3804 45.9412 23.0714 49.3811C21.8563 50.176 20.7597 50.236 19.4261 49.3811C14.0868 45.9412 9.37022 41.5588 5.57625 36.5289C2.10496 31.9691 0 26.5892 0 20.7944ZM14.2356 21.4419C14.2356 25.2943 17.3791 28.3242 21.2336 28.3242C25.0906 28.3242 28.2644 25.2943 28.2644 21.4419C28.2644 17.6195 25.0906 14.4421 21.2336 14.4421C17.3791 14.4421 14.2356 17.6195 14.2356 21.4419Z" fill="#1AADB6"/>
</svg>
