<svg width="32" height="24" viewBox="0 0 32 24" fill="none" xmlns="http://www.w3.org/2000/svg">
<path d="M16 0C9.33333 0 4 5.33333 4 12C4 18.6667 9.33333 24 16 24C22.6667 24 28 18.6667 28 12C28 5.33333 22.6667 0 16 0ZM16 21.3333C10.8 21.3333 6.66667 17.2 6.66667 12C6.66667 6.8 10.8 2.66667 16 2.66667C21.2 2.66667 25.3333 6.8 25.3333 12C25.3333 17.2 21.2 21.3333 16 21.3333ZM27.3333 23.3333C30.2667 20.4 32 16.4 32 12C32 7.6 30.2667 3.6 27.3333 0.666667L25.8667 2.13333C28.4 4.66667 30 8.13333 30 12C30 15.8667 28.4 19.3333 25.8667 21.8667L27.3333 23.3333ZM6.13333 21.8667C3.6 19.3333 2 15.8667 2 12C2 8.13333 3.6 4.66667 6.13333 2.13333L4.66667 0.666667C1.73333 3.6 0 7.6 0 12C0 16.4 1.73333 20.4 4.66667 23.3333L6.13333 21.8667ZM12.6667 5.33333V18.6667H15.3333V13.3333H18C18.7072 13.3333 19.3855 13.0524 19.8856 12.5523C20.3857 12.0522 20.6667 11.3739 20.6667 10.6667V8C20.6667 7.29276 20.3857 6.61448 19.8856 6.11438C19.3855 5.61428 18.7072 5.33333 18 5.33333H12.6667ZM15.3333 8H18V10.6667H15.3333V8Z" fill="#1AADB6"/>
</svg>
