<svg width="36" height="25" viewBox="0 0 36 25" fill="none" xmlns="http://www.w3.org/2000/svg">
<path d="M1.12973 0.87868C0 1.75736 0 3.17157 0 6V15C0 17.8284 0 19.2426 1.12973 20.1213C2.25946 21 4.07774 21 7.71429 21H9.86724C13.111 21 16.1507 22.2309 18.0109 24.2978C18.2983 24.6172 18.442 24.7769 18.6429 24.7769C18.8437 24.7769 18.9874 24.6172 19.2748 24.2978C21.135 22.2309 24.1747 21 27.4185 21H28.2857C31.9223 21 33.7405 21 34.8703 20.1213C36 19.2426 36 17.8284 36 15V6C36 3.17157 36 1.75736 34.8703 0.87868C33.7405 0 31.9223 0 28.2857 0H7.71429C4.07774 0 2.25946 0 1.12973 0.87868Z" fill="#1AADB6"/>
</svg>
