<svg width="20" height="20" viewBox="0 0 20 20" fill="none" xmlns="http://www.w3.org/2000/svg">
<path d="M9.0575 13.8587C9.00917 13.8116 8.8025 13.6338 8.6325 13.4682C7.56333 12.4972 5.81333 9.96436 5.27917 8.63866C5.19333 8.43733 5.01167 7.92832 5 7.65636C5 7.39576 5.06 7.14734 5.18167 6.91029C5.35167 6.61479 5.61917 6.37774 5.935 6.24785C6.15417 6.16423 6.81 6.03434 6.82167 6.03434C7.53917 5.90445 8.705 5.83301 9.99333 5.83301C11.2208 5.83301 12.3392 5.90445 13.0675 6.0108C13.0792 6.02297 13.8942 6.15286 14.1733 6.29493C14.6833 6.55553 15 7.06454 15 7.60927V7.65636C14.9875 8.01112 14.6708 8.75718 14.6592 8.75718C14.1242 10.0114 12.46 12.4859 11.3542 13.4804C11.3542 13.4804 11.07 13.7604 10.8925 13.8822C10.6375 14.0722 10.3217 14.1663 10.0058 14.1663C9.65333 14.1663 9.325 14.06 9.0575 13.8587Z" fill="white"/>
</svg>
