<svg width="15" height="14" viewBox="0 0 15 14" fill="none" xmlns="http://www.w3.org/2000/svg">
<path d="M6.09276 10.949H0.783227M8.46099 2.78119H13.7705M4.7412 2.73558C4.7412 1.64374 3.8495 0.758419 2.74981 0.758419C1.65012 0.758419 0.758419 1.64374 0.758419 2.73558C0.758419 3.82741 1.65012 4.71274 2.74981 4.71274C3.8495 4.71274 4.7412 3.82741 4.7412 2.73558ZM14.2414 10.916C14.2414 9.82413 13.3504 8.9388 12.2507 8.9388C11.1503 8.9388 10.2586 9.82413 10.2586 10.916C10.2586 12.0078 11.1503 12.8931 12.2507 12.8931C13.3504 12.8931 14.2414 12.0078 14.2414 10.916Z" stroke="#1AADB6" stroke-width="1.5" stroke-linecap="round" stroke-linejoin="round"/>
</svg>
