<svg width="360" height="10" viewBox="0 0 360 10" fill="none" xmlns="http://www.w3.org/2000/svg">
<path d="M0 3.25195H155" stroke="#35383F"/>
<path d="M176.5 9.486C175.672 9.486 174.916 9.273 174.232 8.847C173.554 8.421 173.011 7.851 172.603 7.137C172.201 6.417 172 5.622 172 4.752C172 4.092 172.117 3.477 172.351 2.907C172.585 2.331 172.906 1.827 173.314 1.395C173.728 0.957 174.208 0.615 174.754 0.369C175.3 0.123 175.882 0 176.5 0C177.328 0 178.081 0.213 178.759 0.639C179.443 1.065 179.986 1.638 180.388 2.358C180.796 3.078 181 3.876 181 4.752C181 5.406 180.883 6.018 180.649 6.588C180.415 7.158 180.091 7.662 179.677 8.1C179.269 8.532 178.792 8.871 178.246 9.117C177.706 9.363 177.124 9.486 176.5 9.486ZM176.5 7.614C176.998 7.614 177.445 7.482 177.841 7.218C178.237 6.954 178.549 6.606 178.777 6.174C179.011 5.736 179.128 5.262 179.128 4.752C179.128 4.23 179.008 3.75 178.768 3.312C178.534 2.874 178.219 2.526 177.823 2.268C177.427 2.004 176.986 1.872 176.5 1.872C176.008 1.872 175.561 2.004 175.159 2.268C174.763 2.532 174.448 2.883 174.214 3.321C173.986 3.759 173.872 4.236 173.872 4.752C173.872 5.286 173.992 5.769 174.232 6.201C174.472 6.633 174.79 6.978 175.186 7.236C175.588 7.488 176.026 7.614 176.5 7.614Z" fill="#F5F5F5"/>
<path d="M187.973 2.133C187.817 2.037 187.646 1.962 187.46 1.908C187.28 1.848 187.082 1.818 186.866 1.818C186.398 1.818 185.99 1.941 185.642 2.187C185.294 2.433 185.021 2.766 184.823 3.186C184.631 3.606 184.535 4.071 184.535 4.581V9.252H182.654V0.252H184.526V1.467C184.838 1.017 185.216 0.663 185.66 0.405C186.11 0.140999 186.611 0.00899935 187.163 0.00899935C187.367 0.00899935 187.559 0.0179994 187.739 0.0359995C187.925 0.0539997 188.102 0.0899996 188.27 0.143999L187.973 2.133Z" fill="#F5F5F5"/>
<path d="M205 3.25195H360" stroke="#35383F"/>
</svg>
