<svg width="381" height="642" viewBox="0 0 381 642" fill="none" xmlns="http://www.w3.org/2000/svg">
<path fill-rule="evenodd" clip-rule="evenodd" d="M0.5 22.5C0.5 10.3497 10.3497 0.5 22.5 0.5H358.5C370.65 0.5 380.5 10.3497 380.5 22.5V319.525C380.5 320.638 379.535 321.5 378.421 321.5C367.376 321.5 358.421 330.454 358.421 341.5C358.421 352.546 367.376 361.5 378.421 361.5C379.535 361.5 380.5 362.362 380.5 363.475V619.5C380.5 631.65 370.65 641.5 358.5 641.5H22.5C10.3497 641.5 0.5 631.65 0.5 619.5V363.912C0.5 362.546 1.70217 361.5 3.06797 361.5C14.1137 361.5 23.0681 352.546 23.0681 341.5C23.0681 330.454 14.1137 321.5 3.06797 321.5C1.70217 321.5 0.5 320.454 0.5 319.088V22.5Z" fill="#31343B"/>
<path d="M22.5 0C10.0736 0 0 10.0736 0 22.5H1C1 10.6259 10.6259 1 22.5 1V0ZM358.5 0H22.5V1H358.5V0ZM381 22.5C381 10.0736 370.926 0 358.5 0V1C370.374 1 380 10.6259 380 22.5H381ZM381 319.525V22.5H380V319.525H381ZM358.921 341.5C358.921 330.73 367.652 322 378.421 322V321C367.1 321 357.921 330.178 357.921 341.5H358.921ZM378.421 361C367.652 361 358.921 352.27 358.921 341.5H357.921C357.921 352.822 367.1 362 378.421 362V361ZM381 619.5V363.475H380V619.5H381ZM358.5 642C370.926 642 381 631.926 381 619.5H380C380 631.374 370.374 641 358.5 641V642ZM22.5 642H358.5V641H22.5V642ZM0 619.5C0 631.926 10.0736 642 22.5 642V641C10.6259 641 1 631.374 1 619.5H0ZM0 363.912V619.5H1V363.912H0ZM22.5681 341.5C22.5681 352.27 13.8376 361 3.06797 361V362C14.3899 362 23.5681 352.822 23.5681 341.5H22.5681ZM3.06797 322C13.8376 322 22.5681 330.73 22.5681 341.5H23.5681C23.5681 330.178 14.3899 321 3.06797 321V322ZM0 22.5V319.088H1V22.5H0ZM3.06797 321C1.93666 321 1 320.138 1 319.088H0C0 320.77 1.46768 322 3.06797 322V321ZM1 363.912C1 362.862 1.93667 362 3.06797 362V361C1.46768 361 0 362.23 0 363.912H1ZM378.421 362C379.293 362 380 362.67 380 363.475H381C381 362.053 379.778 361 378.421 361V362ZM380 319.525C380 320.33 379.293 321 378.421 321V322C379.778 322 381 320.947 381 319.525H380Z" fill="#35383F"/>
</svg>
