<svg width="177" height="165" viewBox="0 0 177 165" fill="none" xmlns="http://www.w3.org/2000/svg">
<path d="M16.5694 165C14.2895 165 12.1461 164.542 10.1391 163.627C8.13219 162.695 6.36607 161.412 4.84078 159.778C3.33155 158.144 2.14343 156.256 1.27642 154.115C0.425475 151.957 0 149.653 0 147.201C0 144.733 0.425475 142.429 1.27642 140.288C2.14343 138.13 3.33155 136.243 4.84078 134.625C6.36607 132.99 8.13219 131.715 10.1391 130.8C12.1461 129.868 14.2895 129.403 16.5694 129.403C19.2989 129.403 21.8116 130.048 24.1076 131.339C26.4035 132.614 28.3061 134.322 29.8153 136.463L24.5651 139.332C23.6179 138.138 22.4378 137.182 21.0249 136.463C19.628 135.744 18.1429 135.385 16.5694 135.385C15.0923 135.385 13.7035 135.695 12.403 136.316C11.1025 136.921 9.96253 137.771 8.98314 138.866C8.00374 139.945 7.2411 141.203 6.69521 142.641C6.14931 144.063 5.87637 145.583 5.87637 147.201C5.87637 148.836 6.14931 150.364 6.69521 151.786C7.25715 153.208 8.02783 154.466 9.00722 155.561C9.98662 156.64 11.1185 157.49 12.403 158.111C13.7035 158.716 15.0923 159.018 16.5694 159.018C18.175 159.018 19.6682 158.658 21.049 157.939C22.4458 157.204 23.6179 156.24 24.5651 155.046L29.8153 157.939C28.3061 160.064 26.4035 161.772 24.1076 163.063C21.8116 164.354 19.2989 165 16.5694 165Z" fill="white"/>
<path d="M43.687 165C41.4714 165 39.4484 164.42 37.618 163.259C35.8037 162.099 34.3507 160.546 33.2589 158.601C32.1832 156.64 31.6453 154.474 31.6453 152.105C31.6453 150.307 31.9584 148.631 32.5846 147.079C33.2107 145.51 34.0697 144.137 35.1615 142.96C36.2693 141.767 37.5538 140.835 39.0149 140.165C40.4759 139.495 42.0333 139.16 43.687 139.16C45.9027 139.16 47.9177 139.74 49.732 140.901C51.5623 142.061 53.0154 143.622 54.0911 145.583C55.1829 147.545 55.7288 149.718 55.7288 152.105C55.7288 153.886 55.4157 155.553 54.7895 157.106C54.1634 158.658 53.2964 160.031 52.1885 161.225C51.0967 162.401 49.8203 163.325 48.3592 163.995C46.9142 164.665 45.3568 165 43.687 165ZM43.687 159.018C44.8591 159.018 45.9108 158.699 46.842 158.062C47.7732 157.425 48.5037 156.583 49.0336 155.537C49.5795 154.491 49.8524 153.347 49.8524 152.105C49.8524 150.83 49.5714 149.669 49.0095 148.623C48.4636 147.561 47.717 146.719 46.7697 146.098C45.8385 145.461 44.8109 145.142 43.687 145.142C42.531 145.142 41.4874 145.461 40.5562 146.098C39.625 146.735 38.8864 147.585 38.3405 148.648C37.7946 149.71 37.5217 150.862 37.5217 152.105C37.5217 153.396 37.8027 154.564 38.3646 155.61C38.9265 156.656 39.6731 157.49 40.6044 158.111C41.5517 158.716 42.5792 159.018 43.687 159.018Z" fill="white"/>
<path d="M59.4787 164.363V139.846H65.355V142.028C66.1739 141.146 67.1533 140.451 68.2932 139.945C69.4332 139.422 70.6614 139.16 71.978 139.16C73.6478 139.16 75.1811 139.56 76.5779 140.361C77.9908 141.162 79.1147 142.233 79.9496 143.573C80.8006 142.233 81.9245 141.162 83.3213 140.361C84.7181 139.56 86.2515 139.16 87.9212 139.16C89.6874 139.16 91.2849 139.601 92.7139 140.484C94.1589 141.35 95.3068 142.519 96.1578 143.99C97.0248 145.444 97.4583 147.071 97.4583 148.868V164.363H91.5819V150.462C91.5819 149.514 91.3491 148.648 90.8835 147.863C90.434 147.062 89.8238 146.425 89.0532 145.951C88.2986 145.461 87.4476 145.215 86.5003 145.215C85.553 145.215 84.6941 145.452 83.9234 145.926C83.1688 146.384 82.5587 147.005 82.093 147.79C81.6274 148.574 81.3946 149.465 81.3946 150.462V164.363H75.5183V150.462C75.5183 149.465 75.2935 148.574 74.8439 147.79C74.3944 147.005 73.7842 146.384 73.0136 145.926C72.2429 145.452 71.3839 145.215 70.4366 145.215C69.5054 145.215 68.6545 145.461 67.8838 145.951C67.1131 146.425 66.495 147.062 66.0294 147.863C65.5798 148.648 65.355 149.514 65.355 150.462V164.363H59.4787Z" fill="white"/>
<path d="M109.099 134.698V139.846H115.674V145.828H109.099V164.363H103.223V145.828H100.597V139.846H103.223V134.698C103.223 133.292 103.56 132.009 104.234 130.849C104.924 129.672 105.848 128.741 107.004 128.054C108.16 127.351 109.436 127 110.833 127C111.844 127 112.848 127.212 113.843 127.637C114.839 128.062 115.722 128.716 116.493 129.599L112.254 133.815C112.109 133.538 111.901 133.333 111.628 133.203C111.371 133.055 111.106 132.982 110.833 132.982C110.367 132.982 109.958 133.154 109.605 133.497C109.267 133.824 109.099 134.224 109.099 134.698Z" fill="white"/>
<path d="M129.767 165C127.551 165 125.528 164.42 123.698 163.259C121.883 162.099 120.43 160.546 119.339 158.601C118.263 156.64 117.725 154.474 117.725 152.105C117.725 150.307 118.038 148.631 118.664 147.079C119.29 145.51 120.149 144.137 121.241 142.96C122.349 141.767 123.633 140.835 125.094 140.165C126.556 139.495 128.113 139.16 129.767 139.16C131.982 139.16 133.997 139.74 135.812 140.901C137.642 142.061 139.095 143.622 140.171 145.583C141.263 147.545 141.808 149.718 141.808 152.105C141.808 153.886 141.495 155.553 140.869 157.106C140.243 158.658 139.376 160.031 138.268 161.225C137.176 162.401 135.9 163.325 134.439 163.995C132.994 164.665 131.436 165 129.767 165ZM129.767 159.018C130.939 159.018 131.99 158.699 132.922 158.062C133.853 157.425 134.583 156.583 135.113 155.537C135.659 154.491 135.932 153.347 135.932 152.105C135.932 150.83 135.651 149.669 135.089 148.623C134.543 147.561 133.797 146.719 132.849 146.098C131.918 145.461 130.891 145.142 129.767 145.142C128.611 145.142 127.567 145.461 126.636 146.098C125.705 146.735 124.966 147.585 124.42 148.648C123.874 149.71 123.601 150.862 123.601 152.105C123.601 153.396 123.882 154.564 124.444 155.61C125.006 156.656 125.753 157.49 126.684 158.111C127.631 158.716 128.659 159.018 129.767 159.018Z" fill="white"/>
<path d="M145.582 164.363L145.558 139.846H151.435L151.459 142.028C152.278 141.146 153.257 140.451 154.397 139.945C155.537 139.422 156.765 139.16 158.082 139.16C158.965 139.16 159.848 139.291 160.731 139.552L158.419 145.583C157.809 145.338 157.199 145.215 156.589 145.215C155.641 145.215 154.774 145.452 153.987 145.926C153.217 146.384 152.599 147.013 152.133 147.814C151.684 148.599 151.459 149.473 151.459 150.437V164.363H145.582Z" fill="white"/>
<path d="M177 145.828H172.328V164.363H166.451V145.828H162.887V139.846H166.451V132.148H172.328V139.846H177V145.828Z" fill="white"/>
<path d="M88.0801 76.375C108.722 76.375 125.455 59.6416 125.455 39C125.455 18.3584 108.722 1.625 88.0801 1.625C67.4384 1.625 50.7051 18.3584 50.7051 39C50.7051 59.6416 67.4384 76.375 88.0801 76.375Z" fill="#1AADB6"/>
<path d="M76.7051 40.625C79.3975 40.625 81.5801 38.4424 81.5801 35.75C81.5801 33.0576 79.3975 30.875 76.7051 30.875C74.0127 30.875 71.8301 33.0576 71.8301 35.75C71.8301 38.4424 74.0127 40.625 76.7051 40.625Z" stroke="white" stroke-width="3" stroke-miterlimit="10" stroke-linecap="round" stroke-linejoin="round"/>
<path d="M66.9551 24.375V53.625M66.9551 53.625V40.625H109.205V53.625H66.9551ZM109.205 47.125H66.9551M105.955 40.625H84.8301V30.875H96.5853C99.0703 30.875 101.454 31.8622 103.211 33.6193C104.968 35.3765 105.955 37.7597 105.955 40.2448V40.625Z" stroke="white" stroke-width="3" stroke-miterlimit="10" stroke-linecap="round" stroke-linejoin="round"/>
</svg>
