<svg width="32" height="32" viewBox="0 0 32 32" fill="none" xmlns="http://www.w3.org/2000/svg">
<g clip-path="url(#clip0_782_1000)">
<path d="M15.9998 31.3332C24.4682 31.3332 31.3332 24.4682 31.3332 15.9998C31.3332 7.53147 24.4682 0.666504 15.9998 0.666504C7.53147 0.666504 0.666504 7.53147 0.666504 15.9998C0.666504 24.4682 7.53147 31.3332 15.9998 31.3332Z" fill="#1AADB6"/>
<path d="M11.333 16.6665C12.4376 16.6665 13.333 15.7711 13.333 14.6665C13.333 13.5619 12.4376 12.6665 11.333 12.6665C10.2284 12.6665 9.33301 13.5619 9.33301 14.6665C9.33301 15.7711 10.2284 16.6665 11.333 16.6665Z" stroke="white" stroke-miterlimit="10" stroke-linecap="round" stroke-linejoin="round"/>
<path d="M7.33301 10V22M7.33301 22V16.6667H24.6663V22H7.33301ZM24.6663 19.3333H7.33301M23.333 16.6667H14.6663V12.6667H19.489C20.5085 12.6667 21.4862 13.0717 22.2071 13.7925C22.928 14.5134 23.333 15.4912 23.333 16.5107V16.6667Z" stroke="white" stroke-miterlimit="10" stroke-linecap="round" stroke-linejoin="round"/>
</g>
<defs>
<clipPath id="clip0_782_1000">
<rect width="32" height="32" fill="white"/>
</clipPath>
</defs>
</svg>
