<svg width="20" height="20" viewBox="0 0 20 20" fill="none" xmlns="http://www.w3.org/2000/svg">
<g clip-path="url(#clip0_761_15023)">
<path d="M15.0003 10.8332H10.8337V14.9998C10.8337 15.4582 10.4587 15.8332 10.0003 15.8332C9.54199 15.8332 9.16699 15.4582 9.16699 14.9998V10.8332H5.00033C4.54199 10.8332 4.16699 10.4582 4.16699 9.99984C4.16699 9.5415 4.54199 9.1665 5.00033 9.1665H9.16699V4.99984C9.16699 4.5415 9.54199 4.1665 10.0003 4.1665C10.4587 4.1665 10.8337 4.5415 10.8337 4.99984V9.1665H15.0003C15.4587 9.1665 15.8337 9.5415 15.8337 9.99984C15.8337 10.4582 15.4587 10.8332 15.0003 10.8332Z" fill="white"/>
</g>
<defs>
<clipPath id="clip0_761_15023">
<rect width="20" height="20" fill="white"/>
</clipPath>
</defs>
</svg>
