<svg width="28" height="28" viewBox="0 0 28 28" fill="none" xmlns="http://www.w3.org/2000/svg">
<path fill-rule="evenodd" clip-rule="evenodd" d="M3.5 7.58333C3.5 4.52059 3.53279 3.5 7.58333 3.5C11.6339 3.5 11.6667 4.52059 11.6667 7.58333C11.6667 10.6461 11.6796 11.6667 7.58333 11.6667C3.48708 11.6667 3.5 10.6461 3.5 7.58333Z" stroke="white" stroke-width="1.5" stroke-linecap="round" stroke-linejoin="round"/>
<path fill-rule="evenodd" clip-rule="evenodd" d="M16.333 7.58333C16.333 4.52059 16.3658 3.5 20.4163 3.5C24.4669 3.5 24.4997 4.52059 24.4997 7.58333C24.4997 10.6461 24.5126 11.6667 20.4163 11.6667C16.3201 11.6667 16.333 10.6461 16.333 7.58333Z" stroke="white" stroke-width="1.5" stroke-linecap="round" stroke-linejoin="round"/>
<path fill-rule="evenodd" clip-rule="evenodd" d="M3.5 20.4167C3.5 17.3539 3.53279 16.3333 7.58333 16.3333C11.6339 16.3333 11.6667 17.3539 11.6667 20.4167C11.6667 23.4794 11.6796 24.5 7.58333 24.5C3.48708 24.5 3.5 23.4794 3.5 20.4167Z" stroke="white" stroke-width="1.5" stroke-linecap="round" stroke-linejoin="round"/>
<path fill-rule="evenodd" clip-rule="evenodd" d="M16.333 20.4167C16.333 17.3539 16.3658 16.3333 20.4163 16.3333C24.4669 16.3333 24.4997 17.3539 24.4997 20.4167C24.4997 23.4794 24.5126 24.5 20.4163 24.5C16.3201 24.5 16.333 23.4794 16.333 20.4167Z" stroke="white" stroke-width="1.5" stroke-linecap="round" stroke-linejoin="round"/>
</svg>
