<svg width="22" height="27" viewBox="0 0 22 27" fill="none" xmlns="http://www.w3.org/2000/svg">
<path d="M8.90752 0.0130927L21.0578 2.71316C21.2108 2.74373 21.3484 2.82634 21.4474 2.94694C21.5463 3.06754 21.6004 3.21868 21.6005 3.37468V23.6252C21.6004 23.7812 21.5463 23.9323 21.4474 24.0529C21.3484 24.1735 21.2108 24.2561 21.0578 24.2867L8.90752 26.9868C8.80962 27.0063 8.70861 27.0039 8.61175 26.9798C8.51489 26.9556 8.42461 26.9102 8.34739 26.847C8.27017 26.7837 8.20795 26.7041 8.1652 26.6139C8.12246 26.5236 8.10026 26.4251 8.1002 26.3252V0.674609C8.10026 0.57478 8.12246 0.476207 8.1652 0.385992C8.20795 0.295777 8.27017 0.216166 8.34739 0.152894C8.42461 0.0896223 8.51489 0.0442653 8.61175 0.0200908C8.70861 -0.00408363 8.80962 -0.00647384 8.90752 0.0130927ZM6.75016 2.69966V24.3002H1.01252C0.767848 24.3002 0.531451 24.2116 0.347052 24.0507C0.162653 23.8899 0.0427262 23.6678 0.00945019 23.4254L0 23.2877V3.71218C1.03182e-05 3.46751 0.08862 3.23111 0.249442 3.04671C0.410264 2.86231 0.632418 2.74238 0.874821 2.70911L1.01252 2.69966H6.75016ZM12.1503 12.1499C11.7922 12.1499 11.4489 12.2921 11.1957 12.5453C10.9425 12.7985 10.8003 13.1419 10.8003 13.4999C10.8003 13.858 10.9425 14.2014 11.1957 14.4545C11.4489 14.7077 11.7922 14.85 12.1503 14.85C12.5083 14.85 12.8517 14.7077 13.1049 14.4545C13.3581 14.2014 13.5003 13.858 13.5003 13.4999C13.5003 13.1419 13.3581 12.7985 13.1049 12.5453C12.8517 12.2921 12.5083 12.1499 12.1503 12.1499Z" fill="#1AADB6"/>
</svg>
