<svg width="83" height="80" viewBox="0 0 83 80" fill="none" xmlns="http://www.w3.org/2000/svg">
<circle cx="42.5" cy="40.5" r="31.5" fill="url(#paint0_linear_761_15991)"/>
<circle cx="79.5" cy="12.5" r="3.5" fill="#F75555"/>
<circle cx="8.5" cy="4.5" r="4.5" fill="#F75555"/>
<circle cx="4" cy="59" r="2" fill="#F75555"/>
<circle cx="73" cy="71" r="1" fill="#F75555"/>
<path fill-rule="evenodd" clip-rule="evenodd" d="M37.3105 29.1663H46.703C50.3755 29.1663 52.8346 31.7446 52.8346 35.5796V44.4315C52.8346 48.2557 50.3755 50.8329 46.703 50.8329H37.3105C33.638 50.8329 31.168 48.2557 31.168 44.4315V35.5796C31.168 31.7446 33.638 29.1663 37.3105 29.1663ZM45.2627 43.2496C45.631 42.8823 45.631 42.2865 45.2627 41.9182L43.3344 39.9898L45.2627 38.0604C45.631 37.6932 45.631 37.0865 45.2627 36.7182C44.8944 36.3488 44.2985 36.3488 43.9194 36.7182L42.0019 38.6454L40.0735 36.7182C39.6944 36.3488 39.0985 36.3488 38.7302 36.7182C38.3619 37.0865 38.3619 37.6932 38.7302 38.0604L40.6585 39.9898L38.7302 41.9073C38.3619 42.2865 38.3619 42.8823 38.7302 43.2496C38.9144 43.4338 39.1635 43.5323 39.4019 43.5323C39.651 43.5323 39.8894 43.4338 40.0735 43.2496L42.0019 41.3332L43.9302 43.2496C44.1144 43.4457 44.3527 43.5323 44.591 43.5323C44.8402 43.5323 45.0785 43.4338 45.2627 43.2496Z" fill="white"/>
<circle cx="47" cy="2" r="1" fill="#F75555"/>
<circle cx="27.5" cy="78.5" r="1.5" fill="#F75555"/>
<circle cx="54.5" cy="76.5" r="0.5" fill="#F75555"/>
<circle cx="76" cy="49" r="1" fill="#F75555"/>
<circle cx="0.5" cy="33.5" r="0.5" fill="#F75555"/>
<defs>
<linearGradient id="paint0_linear_761_15991" x1="74" y1="72" x2="-0.964344" y2="50.2648" gradientUnits="userSpaceOnUse">
<stop stop-color="#FF4D67"/>
<stop offset="1" stop-color="#FF8A9B"/>
</linearGradient>
</defs>
</svg>
