<svg width="27" height="24" viewBox="0 0 27 24" fill="none" xmlns="http://www.w3.org/2000/svg">
<path fill-rule="evenodd" clip-rule="evenodd" d="M19.9187 0C21.7067 0 23.4267 0.706667 24.692 1.97467C25.9587 3.24 26.6667 4.94667 26.6667 6.73333V17.2667C26.6667 20.9867 23.64 24 19.9187 24H6.74667C3.02533 24 0 20.9867 0 17.2667V6.73333C0 3.01333 3.012 0 6.74667 0H19.9187ZM22.04 8.72L22.1467 8.61333C22.4653 8.22667 22.4653 7.66667 22.132 7.28C21.9467 7.08133 21.692 6.96 21.4267 6.93333C21.1467 6.91867 20.88 7.01333 20.6787 7.2L14.6667 12C13.8933 12.6413 12.7853 12.6413 12 12L6 7.2C5.58533 6.89333 5.012 6.93333 4.66667 7.29333C4.30667 7.65333 4.26667 8.22667 4.572 8.62667L4.74667 8.8L10.8133 13.5333C11.56 14.12 12.4653 14.44 13.4133 14.44C14.3587 14.44 15.28 14.12 16.0253 13.5333L22.04 8.72Z" fill="#1AADB6"/>
</svg>
