<svg width="68" height="28" viewBox="0 0 68 28" fill="none" xmlns="http://www.w3.org/2000/svg">
<path fill-rule="evenodd" clip-rule="evenodd" d="M9.11167 2.33325H18.8895C22.4933 2.33325 24.5 4.40992 24.5 7.96825V20.0199C24.5 23.6366 22.4933 25.6666 18.8895 25.6666H9.11167C5.565 25.6666 3.5 23.6366 3.5 20.0199V7.96825C3.5 4.40992 5.565 2.33325 9.11167 2.33325ZM9.42667 7.76992V7.75825H12.9138C13.4167 7.75825 13.825 8.16659 13.825 8.66709C13.825 9.18159 13.4167 9.58992 12.9138 9.58992H9.42667C8.92383 9.58992 8.51667 9.18159 8.51667 8.67992C8.51667 8.17825 8.92383 7.76992 9.42667 7.76992ZM9.42667 14.8633H18.5733C19.075 14.8633 19.4833 14.4549 19.4833 13.9533C19.4833 13.4516 19.075 13.0421 18.5733 13.0421H9.42667C8.92383 13.0421 8.51667 13.4516 8.51667 13.9533C8.51667 14.4549 8.92383 14.8633 9.42667 14.8633ZM9.42667 20.1949H18.5733C19.0388 20.1483 19.39 19.7504 19.39 19.2849C19.39 18.8066 19.0388 18.4099 18.5733 18.3633H9.42667C9.07667 18.3283 8.73833 18.4916 8.55167 18.7949C8.365 19.0866 8.365 19.4716 8.55167 19.7749C8.73833 20.0666 9.07667 20.2416 9.42667 20.1949Z" fill="#1AADB6"/>
<path fill-rule="evenodd" clip-rule="evenodd" d="M43.5 7.58333C43.5 4.52059 43.5328 3.5 47.5833 3.5C51.6339 3.5 51.6667 4.52059 51.6667 7.58333C51.6667 10.6461 51.6796 11.6667 47.5833 11.6667C43.4871 11.6667 43.5 10.6461 43.5 7.58333Z" stroke="white" stroke-width="1.5" stroke-linecap="round" stroke-linejoin="round"/>
<path fill-rule="evenodd" clip-rule="evenodd" d="M56.3335 7.58333C56.3335 4.52059 56.3663 3.5 60.4168 3.5C64.4674 3.5 64.5002 4.52059 64.5002 7.58333C64.5002 10.6461 64.5131 11.6667 60.4168 11.6667C56.3206 11.6667 56.3335 10.6461 56.3335 7.58333Z" stroke="white" stroke-width="1.5" stroke-linecap="round" stroke-linejoin="round"/>
<path fill-rule="evenodd" clip-rule="evenodd" d="M43.5 20.4166C43.5 17.3538 43.5328 16.3333 47.5833 16.3333C51.6339 16.3333 51.6667 17.3538 51.6667 20.4166C51.6667 23.4793 51.6796 24.4999 47.5833 24.4999C43.4871 24.4999 43.5 23.4793 43.5 20.4166Z" stroke="white" stroke-width="1.5" stroke-linecap="round" stroke-linejoin="round"/>
<path fill-rule="evenodd" clip-rule="evenodd" d="M56.3335 20.4166C56.3335 17.3538 56.3663 16.3333 60.4168 16.3333C64.4674 16.3333 64.5002 17.3538 64.5002 20.4166C64.5002 23.4793 64.5131 24.4999 60.4168 24.4999C56.3206 24.4999 56.3335 23.4793 56.3335 20.4166Z" stroke="white" stroke-width="1.5" stroke-linecap="round" stroke-linejoin="round"/>
</svg>
