<svg width="12" height="12" viewBox="0 0 12 12" fill="none" xmlns="http://www.w3.org/2000/svg">
<path d="M8.95944 7.16C8.82994 7.2855 8.77044 7.467 8.79994 7.645L9.24444 10.105C9.28194 10.3135 9.19394 10.5245 9.01944 10.645C8.84844 10.77 8.62094 10.785 8.43444 10.685L6.21994 9.53C6.14294 9.489 6.05744 9.467 5.96994 9.4645H5.83444C5.78744 9.4715 5.74144 9.4865 5.69944 9.5095L3.48444 10.67C3.37494 10.725 3.25094 10.7445 3.12944 10.725C2.83344 10.669 2.63594 10.387 2.68444 10.0895L3.12944 7.6295C3.15894 7.45 3.09944 7.2675 2.96994 7.14L1.16444 5.39C1.01344 5.2435 0.960938 5.0235 1.02994 4.825C1.09694 4.627 1.26794 4.4825 1.47444 4.45L3.95944 4.0895C4.14844 4.07 4.31444 3.955 4.39944 3.785L5.49444 1.54C5.52044 1.49 5.55394 1.444 5.59444 1.405L5.63944 1.37C5.66294 1.344 5.68994 1.3225 5.71994 1.305L5.77444 1.285L5.85944 1.25H6.06994C6.25794 1.2695 6.42344 1.382 6.50994 1.55L7.61944 3.785C7.69944 3.9485 7.85494 4.062 8.03444 4.0895L10.5194 4.45C10.7294 4.48 10.9049 4.625 10.9744 4.825C11.0399 5.0255 10.9834 5.2455 10.8294 5.39L8.95944 7.16Z" fill="#FFD300"/>
</svg>
