<svg width="83" height="80" viewBox="0 0 83 80" fill="none" xmlns="http://www.w3.org/2000/svg">
<circle cx="42.5" cy="40.5" r="31.5" fill="url(#paint0_linear_761_16007)"/>
<circle cx="79.5" cy="12.5" r="3.5" fill="#00A9F1"/>
<circle cx="8.5" cy="4.5" r="4.5" fill="#00A9F1"/>
<circle cx="4" cy="59" r="2" fill="#00A9F1"/>
<circle cx="73" cy="71" r="1" fill="#00A9F1"/>
<path fill-rule="evenodd" clip-rule="evenodd" d="M47.9823 35.0125V36.6737C49.8482 37.2561 51.2077 38.9452 51.2077 40.9626V46.3109C51.2077 48.8085 49.137 50.8335 46.5843 50.8335H37.4155C34.8617 50.8335 32.791 48.8085 32.791 46.3109V40.9626C32.791 38.9452 34.1516 37.2561 36.0164 36.6737V35.0125C36.0274 31.7829 38.7024 29.1669 41.9828 29.1669C45.3073 29.1669 47.9823 31.7829 47.9823 35.0125ZM42.005 31.0511C44.2397 31.0511 46.056 32.8275 46.056 35.0128V36.4404H37.943V34.9913C37.954 32.8167 39.7704 31.0511 42.005 31.0511ZM42.9623 44.8263C42.9623 45.3538 42.533 45.7737 41.9936 45.7737C41.4652 45.7737 41.0359 45.3538 41.0359 44.8263V42.4364C41.0359 41.9196 41.4652 41.4998 41.9936 41.4998C42.533 41.4998 42.9623 41.9196 42.9623 42.4364V44.8263Z" fill="white"/>
<circle cx="47" cy="2" r="1" fill="#00A9F1"/>
<circle cx="27.5" cy="78.5" r="1.5" fill="#00A9F1"/>
<circle cx="54.5" cy="76.5" r="0.5" fill="#00A9F1"/>
<circle cx="76" cy="49" r="1" fill="#00A9F1"/>
<circle cx="0.5" cy="33.5" r="0.5" fill="#00A9F1"/>
<defs>
<linearGradient id="paint0_linear_761_16007" x1="74" y1="72" x2="-0.964344" y2="50.2648" gradientUnits="userSpaceOnUse">
<stop stop-color="#246BFD"/>
<stop offset="1" stop-color="#6F9EFF"/>
</linearGradient>
</defs>
</svg>
