<svg width="26" height="24" viewBox="0 0 26 24" fill="none" xmlns="http://www.w3.org/2000/svg">
<path d="M7.24751 13.8015L11.0743 9.97476L2.7041 1.61813C2.05504 0.969067 0.932708 1.14485 0.527047 1.98322C-0.433019 3.99801 -0.0814461 6.47254 1.58177 8.14928L7.24751 13.8015ZM16.4155 11.354C18.4843 12.3141 21.3916 11.638 23.5416 9.48796C26.1243 6.90525 26.6246 3.20021 24.6369 1.21246C22.6627 -0.761756 18.9576 -0.274962 16.3614 2.30775C14.2114 4.45776 13.5353 7.365 14.4953 9.43387L2.24435 21.6849C1.99152 21.9377 1.84948 22.2806 1.84948 22.6382C1.84948 22.9957 1.99152 23.3386 2.24435 23.5915C2.49718 23.8443 2.84009 23.9863 3.19765 23.9863C3.55521 23.9863 3.89813 23.8443 4.15096 23.5915L12.5211 15.2484L20.8777 23.605C21.0029 23.7302 21.1516 23.8295 21.3151 23.8972C21.4787 23.965 21.654 23.9999 21.831 23.9999C22.0081 23.9999 22.1834 23.965 22.347 23.8972C22.5105 23.8295 22.6592 23.7302 22.7844 23.605C22.9095 23.4798 23.0088 23.3312 23.0766 23.1676C23.1444 23.004 23.1792 22.8287 23.1792 22.6517C23.1792 22.4746 23.1444 22.2993 23.0766 22.1358C23.0088 21.9722 22.9095 21.8236 22.7844 21.6984L14.4277 13.3417L16.4155 11.354Z" fill="#1AADB6"/>
</svg>
