<svg width="24" height="24" viewBox="0 0 24 24" fill="none" xmlns="http://www.w3.org/2000/svg">
<path d="M21.3333 2.66667V21.3333H2.66667V2.66667H21.3333ZM21.3333 0H2.66667C1.2 0 0 1.2 0 2.66667V21.3333C0 22.8 1.2 24 2.66667 24H21.3333C22.8 24 24 22.8 24 21.3333V2.66667C24 1.2 22.8 0 21.3333 0ZM9.33333 20V14.6667H10.6667V11.3333C10.6667 9.86667 9.46667 8.66667 8 8.66667H6.66667C5.2 8.66667 4 9.86667 4 11.3333V14.6667H5.33333V20H9.33333ZM7.33333 7.33333C7.77536 7.33333 8.19928 7.15774 8.51184 6.84518C8.82441 6.53262 9 6.10869 9 5.66667C9 5.22464 8.82441 4.80072 8.51184 4.48816C8.19928 4.17559 7.77536 4 7.33333 4C6.89131 4 6.46738 4.17559 6.15482 4.48816C5.84226 4.80072 5.66667 5.22464 5.66667 5.66667C5.66667 6.10869 5.84226 6.53262 6.15482 6.84518C6.46738 7.15774 6.89131 7.33333 7.33333 7.33333ZM20 10.6667L16.6667 5.33333L13.3333 10.6667H20ZM13.3333 13.3333L16.6667 18.6667L20 13.3333H13.3333Z" fill="#1AADB6"/>
</svg>
