<svg width="83" height="80" viewBox="0 0 83 80" fill="none" xmlns="http://www.w3.org/2000/svg">
<circle cx="42.5" cy="40.5" r="31.5" fill="#00BCD3"/>
<circle cx="79.5" cy="12.5" r="3.5" fill="#00BCD3"/>
<circle cx="8.5" cy="4.5" r="4.5" fill="#00BCD3"/>
<circle cx="4" cy="59" r="2" fill="#00BCD3"/>
<circle cx="73" cy="71" r="1" fill="#00BCD3"/>
<path fill-rule="evenodd" clip-rule="evenodd" d="M48.2509 36.0805H52.8346C52.8346 32.4002 50.6294 30.2502 46.8932 30.2502H37.1094C33.3732 30.2502 31.168 32.4002 31.168 36.0335V43.9668C31.168 47.6002 33.3732 49.7502 37.1094 49.7502H46.8932C50.6294 49.7502 52.8346 47.6002 52.8346 43.9668V43.6289H48.2509C46.1236 43.6289 44.3991 41.9475 44.3991 39.8734C44.3991 37.7994 46.1236 36.118 48.2509 36.118V36.0805ZM48.2517 37.6952H52.0265C52.4732 37.6952 52.8354 38.0483 52.8354 38.4838V41.2253C52.8302 41.6587 52.4711 42.0088 52.0265 42.0139H48.3384C47.2614 42.028 46.3197 41.3091 46.0754 40.2864C45.9531 39.6515 46.1248 38.9964 46.5446 38.4966C46.9643 37.9968 47.5892 37.7035 48.2517 37.6952ZM48.4159 40.5776H48.7722C49.2296 40.5776 49.6004 40.2161 49.6004 39.7702C49.6004 39.3243 49.2296 38.9628 48.7722 38.9628H48.4159C48.1972 38.9603 47.9865 39.0432 47.8309 39.1932C47.6753 39.3431 47.5878 39.5475 47.5878 39.7608C47.5877 40.2083 47.957 40.5725 48.4159 40.5776ZM36.3011 36.0804H42.4159C42.8733 36.0804 43.2441 35.7189 43.2441 35.273C43.2441 34.827 42.8733 34.4655 42.4159 34.4655H36.3011C35.8475 34.4655 35.4782 34.8213 35.473 35.2636C35.4729 35.711 35.8422 36.0752 36.3011 36.0804Z" fill="white"/>
<circle cx="47" cy="2" r="1" fill="#00BCD3"/>
<circle cx="27.5" cy="78.5" r="1.5" fill="#00BCD3"/>
<circle cx="54.5" cy="76.5" r="0.5" fill="#00BCD3"/>
<circle cx="76" cy="49" r="1" fill="#00BCD3"/>
<circle cx="0.5" cy="33.5" r="0.5" fill="#00BCD3"/>
</svg>
