<svg width="27" height="27" viewBox="0 0 27 27" fill="none" xmlns="http://www.w3.org/2000/svg">
<path d="M25.0697 17.3611L27.0002 15.4306L25.0697 13.5001L20.2501 18.3196L8.68055 6.75004L13.5001 1.93051L11.5696 0L9.63906 1.93051L7.70855 0L4.81953 2.88902L2.88902 0.958506L0.958506 2.88902L2.88902 4.81953L0 7.70855L1.93051 9.63906L0 11.5696L1.93051 13.5001L6.75004 8.68055L18.3196 20.2501L13.5001 25.0697L15.4306 27.0002L17.3611 25.0697L19.2916 27.0002L22.1806 24.1111L24.1111 26.0417L26.0417 24.1111L24.1111 22.1806L27.0002 19.2916L25.0697 17.3611Z" fill="#1AADB6"/>
</svg>
