<svg width="32" height="32" viewBox="0 0 32 32" fill="none" xmlns="http://www.w3.org/2000/svg">
<path d="M23.6667 4C24.8159 4 25.9181 4.45655 26.7308 5.2692C27.5435 6.08186 28 7.18406 28 8.33333V23.6667C28 24.8159 27.5435 25.9181 26.7308 26.7308C25.9181 27.5435 24.8159 28 23.6667 28H23.3333V19.1373L24.744 17.5507C25.1239 17.1235 25.3338 16.5717 25.3338 16C25.3338 15.4283 25.1239 14.8765 24.744 14.4493L23.3333 12.8627V4H23.6667ZM18.7827 20.744C18.451 20.449 18.2103 20.0655 18.0889 19.6385C17.9675 19.2115 17.9704 18.7587 18.0973 18.3333H13.9027C14.0318 18.7656 14.0329 19.2261 13.9057 19.6589C13.7786 20.0918 13.5286 20.4785 13.1862 20.7723C12.8438 21.066 12.4235 21.2542 11.9764 21.314C11.5292 21.3739 11.0743 21.3027 10.6667 21.1093V28H21.3333V21.1093C20.9193 21.3056 20.4566 21.3756 20.003 21.3107C19.5494 21.2457 19.125 21.0486 18.7827 20.744ZM18.7827 11.256C19.125 10.9514 19.5494 10.7543 20.003 10.6893C20.4566 10.6244 20.9193 10.6944 21.3333 10.8907V4H10.6667V10.8907C11.0743 10.6969 11.5294 10.6254 11.9768 10.6851C12.4243 10.7447 12.8448 10.9329 13.1874 11.2267C13.5301 11.5205 13.7801 11.9074 13.9073 12.3405C14.0345 12.7736 14.0334 13.2342 13.904 13.6667H18.096C17.9692 13.2412 17.9665 12.7883 18.0882 12.3613C18.2098 11.9343 18.4507 11.5509 18.7827 11.256ZM8.66667 12.8627V4H8.33333C7.18406 4 6.08186 4.45655 5.2692 5.2692C4.45655 6.08186 4 7.18406 4 8.33333V23.6667C4 24.8159 4.45655 25.9181 5.2692 26.7308C6.08186 27.5435 7.18406 28 8.33333 28H8.66667V19.1373L7.256 17.5507C6.87607 17.1235 6.66619 16.5717 6.66619 16C6.66619 15.4283 6.87607 14.8765 7.256 14.4493L8.66667 12.8627ZM20.7733 15H11.2267L12.4133 13.664C12.5771 13.4643 12.6573 13.2089 12.6371 12.9514C12.6168 12.6939 12.4977 12.4542 12.3047 12.2826C12.1117 12.1109 11.8597 12.0206 11.6016 12.0306C11.3435 12.0405 11.0992 12.15 10.92 12.336L8.25333 15.336C8.09082 15.519 8.00107 15.7553 8.00107 16C8.00107 16.2447 8.09082 16.481 8.25333 16.664L10.92 19.664C11.0054 19.7681 11.111 19.8539 11.2304 19.9163C11.3498 19.9786 11.4805 20.0162 11.6148 20.0267C11.749 20.0373 11.8841 20.0206 12.0117 19.9777C12.1394 19.9348 12.2571 19.8666 12.3577 19.7771C12.4584 19.6876 12.5399 19.5787 12.5974 19.4569C12.6549 19.3351 12.6873 19.203 12.6924 19.0684C12.6976 18.9338 12.6756 18.7996 12.6276 18.6737C12.5797 18.5479 12.5068 18.433 12.4133 18.336L11.2267 17H20.7733L19.5867 18.336C19.4932 18.433 19.4203 18.5479 19.3724 18.6737C19.3244 18.7996 19.3024 18.9338 19.3076 19.0684C19.3127 19.203 19.3451 19.3351 19.4026 19.4569C19.4601 19.5787 19.5416 19.6876 19.6423 19.7771C19.7429 19.8666 19.8606 19.9348 19.9883 19.9777C20.1159 20.0206 20.251 20.0373 20.3852 20.0267C20.5195 20.0162 20.6502 19.9786 20.7696 19.9163C20.889 19.8539 20.9946 19.7681 21.08 19.664L23.7467 16.664L23.7613 16.648C23.919 16.4641 24.0042 16.229 24.001 15.9867C23.9978 15.7445 23.9064 15.5117 23.744 15.332L21.0813 12.336C20.9033 12.1452 20.6577 12.0316 20.397 12.0194C20.1363 12.0072 19.8811 12.0974 19.686 12.2707C19.4909 12.4441 19.3713 12.6868 19.3528 12.9471C19.3342 13.2075 19.4181 13.4647 19.5867 13.664L20.7733 15Z" fill="#1AADB6"/>
</svg>
