<svg width="32" height="32" viewBox="0 0 32 32" fill="none" xmlns="http://www.w3.org/2000/svg">
<path d="M25.3335 9.33317H14.6668V18.6665H4.00016V6.6665H1.3335V26.6665H4.00016V22.6665H28.0002V26.6665H30.6668V14.6665C30.6668 13.252 30.1049 11.8955 29.1047 10.8953C28.1045 9.89507 26.748 9.33317 25.3335 9.33317ZM9.3335 17.3332C10.3944 17.3332 11.4118 16.9117 12.1619 16.1616C12.9121 15.4115 13.3335 14.394 13.3335 13.3332C13.3335 12.2723 12.9121 11.2549 12.1619 10.5047C11.4118 9.7546 10.3944 9.33317 9.3335 9.33317C8.27263 9.33317 7.25521 9.7546 6.50507 10.5047C5.75492 11.2549 5.3335 12.2723 5.3335 13.3332C5.3335 14.394 5.75492 15.4115 6.50507 16.1616C7.25521 16.9117 8.27263 17.3332 9.3335 17.3332Z" fill="#1AADB6"/>
</svg>
