<svg width="83" height="80" viewBox="0 0 83 80" fill="none" xmlns="http://www.w3.org/2000/svg">
<circle cx="42.5" cy="40.5" r="31.5" fill="#1AADB6"/>
<circle cx="79.5" cy="12.5" r="3.5" fill="#76D39D"/>
<circle cx="8.5" cy="4.5" r="4.5" fill="#76D39D"/>
<circle cx="4" cy="59" r="2" fill="#76D39D"/>
<circle cx="73" cy="71" r="1" fill="#76D39D"/>
<path fill-rule="evenodd" clip-rule="evenodd" d="M37.3105 29.1669H46.703C50.3755 29.1669 52.8346 31.7452 52.8346 35.5802V44.4321C52.8346 48.2552 50.3755 50.8335 46.703 50.8335H37.3105C33.638 50.8335 31.168 48.2552 31.168 44.4321V35.5802C31.168 31.7452 33.638 29.1669 37.3105 29.1669ZM41.3833 43.2397L46.5292 38.0938C46.8975 37.7255 46.8975 37.1297 46.5292 36.7505C46.1608 36.3822 45.5542 36.3822 45.1858 36.7505L40.7117 41.2247L38.8158 39.3288C38.4475 38.9605 37.8408 38.9605 37.4725 39.3288C37.1042 39.6972 37.1042 40.293 37.4725 40.6722L40.0508 43.2397C40.235 43.4238 40.4733 43.5105 40.7117 43.5105C40.9608 43.5105 41.1992 43.4238 41.3833 43.2397Z" fill="white"/>
<circle cx="47" cy="2" r="1" fill="#76D39D"/>
<circle cx="27.5" cy="78.5" r="1.5" fill="#76D39D"/>
<circle cx="54.5" cy="76.5" r="0.5" fill="#76D39D"/>
<circle cx="76" cy="49" r="1" fill="#76D39D"/>
<circle cx="0.5" cy="33.5" r="0.5" fill="#76D39D"/>
</svg>
