<svg width="27" height="24" viewBox="0 0 27 24" fill="none" xmlns="http://www.w3.org/2000/svg">
<path d="M26.6667 24.0002C25.1867 24.0002 24.36 23.5069 23.76 23.1469C23.2667 22.8535 22.96 22.6669 22.2267 22.6669C21.48 22.6669 21.1867 22.8402 20.6933 23.1469C20.08 23.5069 19.2667 24.0002 17.7867 24.0002C16.3067 24.0002 15.48 23.5069 14.88 23.1469C14.3867 22.8535 14.08 22.6669 13.3467 22.6669C12.6 22.6669 12.3067 22.8402 11.8133 23.1469C11.2 23.5069 10.3733 24.0002 8.89333 24.0002C7.41333 24.0002 6.58667 23.5069 5.98667 23.1469C5.49333 22.8402 5.18667 22.6669 4.45333 22.6669C3.72 22.6669 3.41333 22.8402 2.92 23.1469C2.30667 23.5069 1.48 24.0002 0 24.0002V21.3335C0.746667 21.3335 1.04 21.1602 1.53333 20.8535C2.14667 20.4935 2.97333 20.0002 4.45333 20.0002C5.93333 20.0002 6.76 20.4935 7.36 20.8535C7.85333 21.1602 8.14667 21.3335 8.89333 21.3335C9.64 21.3335 9.93333 21.1602 10.4267 20.8535C11.04 20.4935 11.8667 20.0002 13.3467 20.0002C14.8267 20.0002 15.6533 20.4935 16.2533 20.8535C16.7467 21.1469 17.0533 21.3335 17.7867 21.3335C18.52 21.3335 18.8267 21.1602 19.32 20.8535C19.92 20.4935 20.7467 20.0002 22.2267 20.0002C23.7067 20.0002 24.5333 20.4935 25.1333 20.8535C25.6267 21.1602 25.92 21.3335 26.6667 21.3335V24.0002ZM26.6667 18.0002C25.1867 18.0002 24.36 17.5069 23.76 17.1469C23.2667 16.8535 22.96 16.6669 22.2267 16.6669C21.48 16.6669 21.1867 16.8402 20.6933 17.1469C20.0933 17.5069 19.2667 18.0002 17.7867 18.0002C16.3067 18.0002 15.48 17.5069 14.88 17.1469C14.3867 16.8535 14.08 16.6669 13.3467 16.6669C12.6 16.6669 12.3067 16.8402 11.8133 17.1469C11.2133 17.5069 10.3867 18.0002 8.90667 18.0002C7.42667 18.0002 6.6 17.5069 6 17.1469C5.50667 16.8535 5.2 16.6669 4.46667 16.6669C3.73333 16.6669 3.42667 16.8402 2.93333 17.1469C2.30667 17.5069 1.48 18.0002 0 18.0002V15.3335C0.746667 15.3335 1.04 15.1602 1.53333 14.8535C2.13333 14.4935 2.96 14.0002 4.44 14.0002C5.92 14.0002 6.74667 14.4935 7.34667 14.8535C7.84 15.1469 8.14667 15.3335 8.88 15.3335C9.62667 15.3335 9.92 15.1602 10.4133 14.8535C11.0133 14.4935 11.84 14.0002 13.32 14.0002C14.8 14.0002 15.6267 14.4935 16.2267 14.8535C16.72 15.1469 17.0267 15.3335 17.76 15.3335C18.4933 15.3335 18.8 15.1602 19.2933 14.8535C19.8933 14.4935 20.72 14.0002 22.2 14.0002C23.68 14.0002 24.5067 14.4935 25.1067 14.8535C25.6 15.1469 25.9067 15.3335 26.64 15.3335V18.0002H26.6667ZM8.89333 12.0002C9.64 12.0002 9.93333 11.8269 10.4267 11.5202C11.04 11.1602 11.8667 10.6669 13.3467 10.6669C14.8267 10.6669 15.6533 11.1602 16.2533 11.5202C16.7467 11.8135 17.0533 12.0002 17.7867 12.0002C18.52 12.0002 18.8267 11.8269 19.32 11.5202C19.48 11.4269 19.6667 11.3202 19.8667 11.2135L11.3067 2.66688C9.24 0.600212 7.33333 -0.0131216 4 0.000211781V3.33355C6.42667 3.32021 7.85333 3.85355 9.33333 5.33355L10.6667 6.66688L6.33333 11.0002C6.74667 11.1602 7.08 11.3602 7.36 11.5202C7.85333 11.8269 8.14667 12.0002 8.89333 12.0002Z" fill="#1AADB6"/>
<path d="M19.3333 6.66688C21.1743 6.66688 22.6667 5.17449 22.6667 3.33355C22.6667 1.4926 21.1743 0.000211716 19.3333 0.000211716C17.4924 0.000211716 16 1.4926 16 3.33355C16 5.17449 17.4924 6.66688 19.3333 6.66688Z" fill="#1AADB6"/>
<path d="M10.6667 6.66688L6.33333 11.0002C6.74667 11.1602 7.08 11.3602 7.36 11.5202C7.85333 11.8269 8.14667 12.0002 8.89333 12.0002C9.64 12.0002 9.93333 11.8269 10.4267 11.5202C11.04 11.1602 11.8667 10.6669 13.3467 10.6669C14.8267 10.6669 15.6533 11.1602 16.2533 11.5202C16.7467 11.8135 17.0533 12.0002 17.7867 12.0002C18.52 12.0002 18.8267 11.8269 19.32 11.5202C19.48 11.4269 19.6667 11.3202 19.8667 11.2135L11.3067 2.66688C9.24 0.600212 7.33333 -0.0131216 4 0.000211781V3.33355C6.42667 3.32021 7.85333 3.85355 9.33333 5.33355L10.6667 6.66688ZM4.46667 16.6669C5.2 16.6669 5.50667 16.8535 6 17.1469C6.6 17.5069 7.42667 18.0002 8.90667 18.0002C10.3867 18.0002 11.2133 17.5069 11.8133 17.1469C12.3067 16.8402 12.6 16.6669 13.3467 16.6669C14.08 16.6669 14.3867 16.8535 14.88 17.1469C15.48 17.5069 16.3067 18.0002 17.7867 18.0002C19.2667 18.0002 20.0933 17.5069 20.6933 17.1469C21.1867 16.8402 21.48 16.6669 22.2267 16.6669C22.96 16.6669 23.2667 16.8535 23.76 17.1469C24.36 17.5069 25.1733 17.9869 26.64 18.0002V15.3335C25.9067 15.3335 25.6 15.1469 25.1067 14.8535C24.5067 14.4935 23.68 14.0002 22.2 14.0002C20.72 14.0002 19.8933 14.4935 19.2933 14.8535C18.8 15.1602 18.4933 15.3335 17.76 15.3335C17.0267 15.3335 16.72 15.1469 16.2267 14.8535C15.6267 14.4935 14.8 14.0002 13.32 14.0002C11.84 14.0002 11.0133 14.4935 10.4133 14.8535C9.92 15.1602 9.62667 15.3335 8.88 15.3335C8.14667 15.3335 7.84 15.1469 7.34667 14.8535C6.74667 14.4935 5.92 14.0002 4.44 14.0002C2.96 14.0002 2.13333 14.4935 1.53333 14.8535C1.04 15.1602 0.746667 15.3335 0 15.3335V18.0002C1.48 18.0002 2.30667 17.5069 2.93333 17.1469C3.42667 16.8402 3.73333 16.6669 4.46667 16.6669ZM22.2267 20.0002C20.7467 20.0002 19.92 20.4935 19.32 20.8535C18.8267 21.1602 18.52 21.3335 17.7867 21.3335C17.0533 21.3335 16.7467 21.1469 16.2533 20.8535C15.6533 20.4935 14.8267 20.0002 13.3467 20.0002C11.8667 20.0002 11.04 20.4935 10.4267 20.8535C9.93333 21.1602 9.64 21.3335 8.89333 21.3335C8.14667 21.3335 7.85333 21.1602 7.36 20.8535C6.76 20.4935 5.93333 20.0002 4.45333 20.0002C2.97333 20.0002 2.14667 20.4935 1.53333 20.8535C1.04 21.1602 0.746667 21.3335 0 21.3335V24.0002C1.48 24.0002 2.30667 23.5069 2.92 23.1469C3.41333 22.8402 3.72 22.6669 4.45333 22.6669C5.18667 22.6669 5.49333 22.8402 5.98667 23.1469C6.58667 23.5069 7.41333 24.0002 8.89333 24.0002C10.3733 24.0002 11.2 23.5069 11.8133 23.1469C12.3067 22.8402 12.6 22.6669 13.3467 22.6669C14.08 22.6669 14.3867 22.8535 14.88 23.1469C15.48 23.5069 16.3067 24.0002 17.7867 24.0002C19.2667 24.0002 20.08 23.5069 20.6933 23.1469C21.1867 22.8402 21.48 22.6669 22.2267 22.6669C22.96 22.6669 23.2667 22.8535 23.76 23.1469C24.36 23.5069 25.1867 24.0002 26.6667 24.0002V21.3335C25.92 21.3335 25.6267 21.1602 25.1333 20.8535C24.5333 20.4935 23.7067 20.0002 22.2267 20.0002Z" fill="#1AADB6"/>
<path d="M19.3333 6.66688C21.1743 6.66688 22.6667 5.17449 22.6667 3.33355C22.6667 1.4926 21.1743 0.000211716 19.3333 0.000211716C17.4924 0.000211716 16 1.4926 16 3.33355C16 5.17449 17.4924 6.66688 19.3333 6.66688Z" fill="#1AADB6"/>
</svg>
