<svg width="224" height="224" viewBox="0 0 224 224" fill="none" xmlns="http://www.w3.org/2000/svg">
<path d="M6.78788 0H0V6.78788H6.78788V0Z" fill="white"/>
<path d="M13.5758 0H6.78788V6.78788H13.5758V0Z" fill="white"/>
<path d="M20.3636 0H13.5758V6.78788H20.3636V0Z" fill="white"/>
<path d="M27.1515 0H20.3636V6.78788H27.1515V0Z" fill="white"/>
<path d="M33.9394 0H27.1515V6.78788H33.9394V0Z" fill="white"/>
<path d="M40.7273 0H33.9394V6.78788H40.7273V0Z" fill="white"/>
<path d="M47.5152 0H40.7273V6.78788H47.5152V0Z" fill="white"/>
<path d="M61.0909 0H54.303V6.78788H61.0909V0Z" fill="white"/>
<path d="M67.8788 0H61.0909V6.78788H67.8788V0Z" fill="white"/>
<path d="M81.4546 0H74.6667V6.78788H81.4546V0Z" fill="white"/>
<path d="M88.2424 0H81.4546V6.78788H88.2424V0Z" fill="white"/>
<path d="M142.545 0H135.758V6.78788H142.545V0Z" fill="white"/>
<path d="M149.333 0H142.545V6.78788H149.333V0Z" fill="white"/>
<path d="M169.697 0H162.909V6.78788H169.697V0Z" fill="white"/>
<path d="M183.273 0H176.485V6.78788H183.273V0Z" fill="white"/>
<path d="M190.061 0H183.273V6.78788H190.061V0Z" fill="white"/>
<path d="M196.848 0H190.061V6.78788H196.848V0Z" fill="white"/>
<path d="M203.636 0H196.848V6.78788H203.636V0Z" fill="white"/>
<path d="M210.424 0H203.636V6.78788H210.424V0Z" fill="white"/>
<path d="M217.212 0H210.424V6.78788H217.212V0Z" fill="white"/>
<path d="M224 0H217.212V6.78788H224V0Z" fill="white"/>
<path d="M6.78788 6.78788H0V13.5758H6.78788V6.78788Z" fill="white"/>
<path d="M47.5152 6.78788H40.7273V13.5758H47.5152V6.78788Z" fill="white"/>
<path d="M67.8788 6.78788H61.0909V13.5758H67.8788V6.78788Z" fill="white"/>
<path d="M74.6667 6.78788H67.8788V13.5758H74.6667V6.78788Z" fill="white"/>
<path d="M81.4546 6.78788H74.6667V13.5758H81.4546V6.78788Z" fill="white"/>
<path d="M95.0303 6.78788H88.2424V13.5758H95.0303V6.78788Z" fill="white"/>
<path d="M108.606 6.78788H101.818V13.5758H108.606V6.78788Z" fill="white"/>
<path d="M128.97 6.78788H122.182V13.5758H128.97V6.78788Z" fill="white"/>
<path d="M135.758 6.78788H128.97V13.5758H135.758V6.78788Z" fill="white"/>
<path d="M142.545 6.78788H135.758V13.5758H142.545V6.78788Z" fill="white"/>
<path d="M149.333 6.78788H142.545V13.5758H149.333V6.78788Z" fill="white"/>
<path d="M169.697 6.78788H162.909V13.5758H169.697V6.78788Z" fill="white"/>
<path d="M183.273 6.78788H176.485V13.5758H183.273V6.78788Z" fill="white"/>
<path d="M224 6.78788H217.212V13.5758H224V6.78788Z" fill="white"/>
<path d="M6.78788 13.5758H0V20.3636H6.78788V13.5758Z" fill="white"/>
<path d="M20.3636 13.5758H13.5758V20.3636H20.3636V13.5758Z" fill="white"/>
<path d="M27.1515 13.5758H20.3636V20.3636H27.1515V13.5758Z" fill="white"/>
<path d="M33.9394 13.5758H27.1515V20.3636H33.9394V13.5758Z" fill="white"/>
<path d="M47.5152 13.5758H40.7273V20.3636H47.5152V13.5758Z" fill="white"/>
<path d="M74.6667 13.5758H67.8788V20.3636H74.6667V13.5758Z" fill="white"/>
<path d="M88.2424 13.5758H81.4546V20.3636H88.2424V13.5758Z" fill="white"/>
<path d="M101.818 13.5758H95.0303V20.3636H101.818V13.5758Z" fill="white"/>
<path d="M108.606 13.5758H101.818V20.3636H108.606V13.5758Z" fill="white"/>
<path d="M115.394 13.5758H108.606V20.3636H115.394V13.5758Z" fill="white"/>
<path d="M135.758 13.5758H128.97L128.97 20.3636H135.758V13.5758Z" fill="white"/>
<path d="M149.333 13.5758H142.545V20.3636H149.333V13.5758Z" fill="white"/>
<path d="M156.121 13.5758H149.333V20.3636H156.121V13.5758Z" fill="white"/>
<path d="M162.909 13.5758H156.121V20.3636H162.909V13.5758Z" fill="white"/>
<path d="M183.273 13.5758H176.485V20.3636H183.273V13.5758Z" fill="white"/>
<path d="M196.848 13.5758H190.061V20.3636H196.848V13.5758Z" fill="white"/>
<path d="M203.636 13.5758H196.848V20.3636H203.636V13.5758Z" fill="white"/>
<path d="M210.424 13.5758H203.636V20.3636H210.424V13.5758Z" fill="white"/>
<path d="M224 13.5758H217.212V20.3636H224V13.5758Z" fill="white"/>
<path d="M6.78788 20.3636H0V27.1515H6.78788V20.3636Z" fill="white"/>
<path d="M20.3636 20.3636H13.5758V27.1515H20.3636V20.3636Z" fill="white"/>
<path d="M27.1515 20.3636H20.3636V27.1515H27.1515V20.3636Z" fill="white"/>
<path d="M33.9394 20.3636H27.1515V27.1515H33.9394V20.3636Z" fill="white"/>
<path d="M47.5152 20.3636H40.7273V27.1515H47.5152V20.3636Z" fill="white"/>
<path d="M67.8788 20.3636H61.0909V27.1515H67.8788V20.3636Z" fill="white"/>
<path d="M74.6667 20.3636H67.8788V27.1515H74.6667V20.3636Z" fill="white"/>
<path d="M81.4546 20.3636H74.6667V27.1515H81.4546V20.3636Z" fill="white"/>
<path d="M88.2424 20.3636H81.4546V27.1515H88.2424V20.3636Z" fill="white"/>
<path d="M95.0303 20.3636H88.2424V27.1515H95.0303V20.3636Z" fill="white"/>
<path d="M101.818 20.3636H95.0303V27.1515H101.818V20.3636Z" fill="white"/>
<path d="M108.606 20.3636H101.818V27.1515H108.606V20.3636Z" fill="white"/>
<path d="M115.394 20.3636H108.606V27.1515H115.394V20.3636Z" fill="white"/>
<path d="M128.97 20.3636H122.182V27.1515H128.97L128.97 20.3636Z" fill="white"/>
<path d="M142.545 20.3636H135.758V27.1515H142.545V20.3636Z" fill="white"/>
<path d="M156.121 20.3636H149.333V27.1515H156.121V20.3636Z" fill="white"/>
<path d="M162.909 20.3636H156.121V27.1515H162.909V20.3636Z" fill="white"/>
<path d="M183.273 20.3636H176.485V27.1515H183.273V20.3636Z" fill="white"/>
<path d="M196.848 20.3636H190.061V27.1515H196.848V20.3636Z" fill="white"/>
<path d="M203.636 20.3636H196.848V27.1515H203.636V20.3636Z" fill="white"/>
<path d="M210.424 20.3636H203.636V27.1515H210.424V20.3636Z" fill="white"/>
<path d="M224 20.3636H217.212V27.1515H224V20.3636Z" fill="white"/>
<path d="M6.78788 27.1515H0V33.9394H6.78788V27.1515Z" fill="white"/>
<path d="M20.3636 27.1515H13.5758V33.9394H20.3636V27.1515Z" fill="white"/>
<path d="M27.1515 27.1515H20.3636V33.9394H27.1515V27.1515Z" fill="white"/>
<path d="M33.9394 27.1515H27.1515V33.9394H33.9394V27.1515Z" fill="white"/>
<path d="M47.5152 27.1515H40.7273V33.9394H47.5152V27.1515Z" fill="white"/>
<path d="M61.0909 27.1515H54.303V33.9394H61.0909V27.1515Z" fill="white"/>
<path d="M74.6667 27.1515H67.8788V33.9394H74.6667V27.1515Z" fill="white"/>
<path d="M81.4546 27.1515H74.6667V33.9394H81.4546V27.1515Z" fill="white"/>
<path d="M101.818 27.1515H95.0303V33.9394H101.818V27.1515Z" fill="white"/>
<path d="M115.394 27.1515H108.606V33.9394H115.394V27.1515Z" fill="white"/>
<path d="M142.545 27.1515H135.758V33.9394H142.545V27.1515Z" fill="white"/>
<path d="M149.333 27.1515H142.545V33.9394H149.333V27.1515Z" fill="white"/>
<path d="M162.909 27.1515H156.121V33.9394H162.909V27.1515Z" fill="white"/>
<path d="M169.697 27.1515H162.909V33.9394H169.697V27.1515Z" fill="white"/>
<path d="M183.273 27.1515H176.485V33.9394H183.273V27.1515Z" fill="white"/>
<path d="M196.848 27.1515H190.061V33.9394H196.848V27.1515Z" fill="white"/>
<path d="M203.636 27.1515H196.848V33.9394H203.636V27.1515Z" fill="white"/>
<path d="M210.424 27.1515H203.636V33.9394H210.424V27.1515Z" fill="white"/>
<path d="M224 27.1515H217.212V33.9394H224V27.1515Z" fill="white"/>
<path d="M6.78788 33.9394H0V40.7273H6.78788V33.9394Z" fill="white"/>
<path d="M47.5152 33.9394H40.7273V40.7273H47.5152V33.9394Z" fill="white"/>
<path d="M67.8788 33.9394H61.0909V40.7273H67.8788V33.9394Z" fill="white"/>
<path d="M88.2424 33.9394H81.4546V40.7273H88.2424V33.9394Z" fill="white"/>
<path d="M101.818 33.9394H95.0303V40.7273H101.818V33.9394Z" fill="white"/>
<path d="M108.606 33.9394H101.818V40.7273H108.606V33.9394Z" fill="white"/>
<path d="M135.758 33.9394H128.97V40.7273H135.758V33.9394Z" fill="white"/>
<path d="M183.273 33.9394H176.485V40.7273H183.273V33.9394Z" fill="white"/>
<path d="M224 33.9394H217.212V40.7273H224V33.9394Z" fill="white"/>
<path d="M6.78788 40.7273H0V47.5152H6.78788V40.7273Z" fill="white"/>
<path d="M13.5758 40.7273H6.78788V47.5152H13.5758V40.7273Z" fill="white"/>
<path d="M20.3636 40.7273H13.5758V47.5152H20.3636V40.7273Z" fill="white"/>
<path d="M27.1515 40.7273H20.3636V47.5152H27.1515V40.7273Z" fill="white"/>
<path d="M33.9394 40.7273H27.1515V47.5152H33.9394V40.7273Z" fill="white"/>
<path d="M40.7273 40.7273H33.9394V47.5152H40.7273V40.7273Z" fill="white"/>
<path d="M47.5152 40.7273H40.7273V47.5152H47.5152V40.7273Z" fill="white"/>
<path d="M61.0909 40.7273H54.303V47.5152H61.0909V40.7273Z" fill="white"/>
<path d="M74.6667 40.7273H67.8788V47.5152H74.6667V40.7273Z" fill="white"/>
<path d="M88.2424 40.7273H81.4546V47.5152H88.2424V40.7273Z" fill="white"/>
<path d="M101.818 40.7273H95.0303V47.5152H101.818V40.7273Z" fill="white"/>
<path d="M115.394 40.7273H108.606V47.5152H115.394V40.7273Z" fill="white"/>
<path d="M128.97 40.7273H122.182V47.5152H128.97L128.97 40.7273Z" fill="white"/>
<path d="M142.545 40.7273H135.758V47.5152H142.545V40.7273Z" fill="white"/>
<path d="M156.121 40.7273H149.333V47.5152H156.121V40.7273Z" fill="white"/>
<path d="M169.697 40.7273H162.909V47.5152H169.697V40.7273Z" fill="white"/>
<path d="M183.273 40.7273H176.485V47.5152H183.273V40.7273Z" fill="white"/>
<path d="M190.061 40.7273H183.273V47.5152H190.061V40.7273Z" fill="white"/>
<path d="M196.848 40.7273H190.061V47.5152H196.848V40.7273Z" fill="white"/>
<path d="M203.636 40.7273H196.848V47.5152H203.636V40.7273Z" fill="white"/>
<path d="M210.424 40.7273H203.636V47.5152H210.424V40.7273Z" fill="white"/>
<path d="M217.212 40.7273H210.424V47.5152H217.212V40.7273Z" fill="white"/>
<path d="M224 40.7273H217.212V47.5152H224V40.7273Z" fill="white"/>
<path d="M61.0909 47.5152H54.303V54.303H61.0909V47.5152Z" fill="white"/>
<path d="M74.6667 47.5152H67.8788V54.303H74.6667V47.5152Z" fill="white"/>
<path d="M88.2424 47.5152H81.4546V54.303H88.2424V47.5152Z" fill="white"/>
<path d="M95.0303 47.5152H88.2424V54.303H95.0303V47.5152Z" fill="white"/>
<path d="M108.606 47.5152H101.818V54.303H108.606V47.5152Z" fill="white"/>
<path d="M128.97 47.5152H122.182V54.303H128.97V47.5152Z" fill="white"/>
<path d="M135.758 47.5152H128.97V54.303H135.758V47.5152Z" fill="white"/>
<path d="M149.333 47.5152H142.545V54.303H149.333V47.5152Z" fill="white"/>
<path d="M162.909 47.5152H156.121V54.303H162.909V47.5152Z" fill="white"/>
<path d="M6.78788 54.303H0V61.0909H6.78788V54.303Z" fill="white"/>
<path d="M27.1515 54.303H20.3636V61.0909H27.1515V54.303Z" fill="white"/>
<path d="M33.9394 54.303H27.1515V61.0909H33.9394V54.303Z" fill="white"/>
<path d="M40.7273 54.303H33.9394V61.0909H40.7273V54.303Z" fill="white"/>
<path d="M47.5152 54.303H40.7273V61.0909H47.5152V54.303Z" fill="white"/>
<path d="M54.303 54.303H47.5152V61.0909H54.303V54.303Z" fill="white"/>
<path d="M61.0909 54.303H54.303V61.0909H61.0909V54.303Z" fill="white"/>
<path d="M81.4546 54.303H74.6667V61.0909H81.4546V54.303Z" fill="white"/>
<path d="M88.2424 54.303H81.4546V61.0909H88.2424V54.303Z" fill="white"/>
<path d="M115.394 54.303H108.606V61.0909H115.394V54.303Z" fill="white"/>
<path d="M122.182 54.303H115.394V61.0909H122.182V54.303Z" fill="white"/>
<path d="M135.758 54.303H128.97L128.97 61.0909H135.758V54.303Z" fill="white"/>
<path d="M142.545 54.303H135.758V61.0909H142.545V54.303Z" fill="white"/>
<path d="M156.121 54.303H149.333V61.0909H156.121V54.303Z" fill="white"/>
<path d="M162.909 54.303H156.121V61.0909H162.909V54.303Z" fill="white"/>
<path d="M176.485 54.303H169.697V61.0909H176.485V54.303Z" fill="white"/>
<path d="M183.273 54.303H176.485V61.0909H183.273V54.303Z" fill="white"/>
<path d="M196.848 54.303H190.061V61.0909H196.848V54.303Z" fill="white"/>
<path d="M224 54.303H217.212V61.0909H224V54.303Z" fill="white"/>
<path d="M13.5758 61.0909H6.78788V67.8788H13.5758V61.0909Z" fill="white"/>
<path d="M27.1515 61.0909H20.3636V67.8788H27.1515V61.0909Z" fill="white"/>
<path d="M54.303 61.0909H47.5152V67.8788H54.303V61.0909Z" fill="white"/>
<path d="M61.0909 61.0909H54.303V67.8788H61.0909V61.0909Z" fill="white"/>
<path d="M67.8788 61.0909H61.0909V67.8788H67.8788V61.0909Z" fill="white"/>
<path d="M74.6667 61.0909H67.8788V67.8788H74.6667V61.0909Z" fill="white"/>
<path d="M88.2424 61.0909H81.4546V67.8788H88.2424V61.0909Z" fill="white"/>
<path d="M95.0303 61.0909H88.2424V67.8788H95.0303V61.0909Z" fill="white"/>
<path d="M101.818 61.0909H95.0303V67.8788H101.818V61.0909Z" fill="white"/>
<path d="M108.606 61.0909H101.818V67.8788H108.606V61.0909Z" fill="white"/>
<path d="M128.97 61.0909H122.182V67.8788H128.97L128.97 61.0909Z" fill="white"/>
<path d="M135.758 61.0909H128.97L128.97 67.8788H135.758V61.0909Z" fill="white"/>
<path d="M149.333 61.0909H142.545V67.8788H149.333V61.0909Z" fill="white"/>
<path d="M169.697 61.0909H162.909V67.8788H169.697V61.0909Z" fill="white"/>
<path d="M183.273 61.0909H176.485V67.8788H183.273V61.0909Z" fill="white"/>
<path d="M190.061 61.0909H183.273V67.8788H190.061V61.0909Z" fill="white"/>
<path d="M224 61.0909H217.212V67.8788H224V61.0909Z" fill="white"/>
<path d="M6.78788 67.8788H0V74.6667H6.78788V67.8788Z" fill="white"/>
<path d="M13.5758 67.8788H6.78788V74.6667H13.5758V67.8788Z" fill="white"/>
<path d="M20.3636 67.8788H13.5758V74.6667H20.3636V67.8788Z" fill="white"/>
<path d="M40.7273 67.8788H33.9394V74.6667H40.7273V67.8788Z" fill="white"/>
<path d="M47.5152 67.8788H40.7273V74.6667H47.5152V67.8788Z" fill="white"/>
<path d="M54.303 67.8788H47.5152V74.6667H54.303V67.8788Z" fill="white"/>
<path d="M61.0909 67.8788H54.303V74.6667H61.0909V67.8788Z" fill="white"/>
<path d="M95.0303 67.8788H88.2424V74.6667H95.0303V67.8788Z" fill="white"/>
<path d="M108.606 67.8788H101.818V74.6667H108.606V67.8788Z" fill="white"/>
<path d="M115.394 67.8788H108.606V74.6667H115.394V67.8788Z" fill="white"/>
<path d="M128.97 67.8788H122.182V74.6667H128.97V67.8788Z" fill="white"/>
<path d="M135.758 67.8788H128.97V74.6667H135.758V67.8788Z" fill="white"/>
<path d="M149.333 67.8788H142.545V74.6667H149.333V67.8788Z" fill="white"/>
<path d="M156.121 67.8788H149.333V74.6667H156.121V67.8788Z" fill="white"/>
<path d="M162.909 67.8788H156.121V74.6667H162.909V67.8788Z" fill="white"/>
<path d="M196.848 67.8788H190.061V74.6667H196.848V67.8788Z" fill="white"/>
<path d="M210.424 67.8788H203.636V74.6667H210.424V67.8788Z" fill="white"/>
<path d="M6.78788 74.6667H0V81.4546H6.78788V74.6667Z" fill="white"/>
<path d="M13.5758 74.6667H6.78788V81.4546H13.5758V74.6667Z" fill="white"/>
<path d="M20.3636 74.6667H13.5758V81.4546H20.3636V74.6667Z" fill="white"/>
<path d="M33.9394 74.6667H27.1515V81.4546H33.9394V74.6667Z" fill="white"/>
<path d="M81.4546 74.6667H74.6667V81.4546H81.4546V74.6667Z" fill="white"/>
<path d="M88.2424 74.6667H81.4546V81.4546H88.2424V74.6667Z" fill="white"/>
<path d="M101.818 74.6667H95.0303V81.4546H101.818V74.6667Z" fill="white"/>
<path d="M108.606 74.6667H101.818V81.4546H108.606V74.6667Z" fill="white"/>
<path d="M122.182 74.6667H115.394V81.4546H122.182V74.6667Z" fill="white"/>
<path d="M135.758 74.6667H128.97L128.97 81.4546H135.758V74.6667Z" fill="white"/>
<path d="M156.121 74.6667H149.333V81.4546H156.121V74.6667Z" fill="white"/>
<path d="M169.697 74.6667H162.909V81.4546H169.697V74.6667Z" fill="white"/>
<path d="M190.061 74.6667H183.273V81.4546H190.061V74.6667Z" fill="white"/>
<path d="M210.424 74.6667H203.636V81.4546H210.424V74.6667Z" fill="white"/>
<path d="M13.5758 81.4546H6.78788V88.2424H13.5758V81.4546Z" fill="white"/>
<path d="M20.3636 81.4546H13.5758V88.2424H20.3636V81.4546Z" fill="white"/>
<path d="M40.7273 81.4546H33.9394V88.2424H40.7273V81.4546Z" fill="white"/>
<path d="M47.5152 81.4546H40.7273V88.2424H47.5152V81.4546Z" fill="white"/>
<path d="M54.303 81.4546H47.5152V88.2424H54.303V81.4546Z" fill="white"/>
<path d="M61.0909 81.4546H54.303V88.2424H61.0909V81.4546Z" fill="white"/>
<path d="M108.606 81.4546H101.818V88.2424H108.606V81.4546Z" fill="white"/>
<path d="M142.545 81.4546H135.758V88.2424H142.545V81.4546Z" fill="white"/>
<path d="M183.273 81.4546H176.485V88.2424H183.273V81.4546Z" fill="white"/>
<path d="M190.061 81.4546H183.273V88.2424H190.061V81.4546Z" fill="white"/>
<path d="M196.848 81.4546H190.061V88.2424H196.848V81.4546Z" fill="white"/>
<path d="M203.636 81.4546H196.848V88.2424H203.636V81.4546Z" fill="white"/>
<path d="M217.212 81.4546H210.424V88.2424H217.212V81.4546Z" fill="white"/>
<path d="M224 81.4546H217.212V88.2424H224V81.4546Z" fill="white"/>
<path d="M20.3636 88.2424H13.5758V95.0303H20.3636V88.2424Z" fill="white"/>
<path d="M33.9394 88.2424H27.1515V95.0303H33.9394V88.2424Z" fill="white"/>
<path d="M40.7273 88.2424H33.9394V95.0303H40.7273V88.2424Z" fill="white"/>
<path d="M67.8788 88.2424H61.0909V95.0303H67.8788V88.2424Z" fill="white"/>
<path d="M88.2424 88.2424H81.4546V95.0303H88.2424V88.2424Z" fill="white"/>
<path d="M95.0303 88.2424H88.2424V95.0303H95.0303V88.2424Z" fill="white"/>
<path d="M101.818 88.2424H95.0303V95.0303H101.818V88.2424Z" fill="white"/>
<path d="M108.606 88.2424H101.818V95.0303H108.606V88.2424Z" fill="white"/>
<path d="M115.394 88.2424H108.606V95.0303H115.394V88.2424Z" fill="white"/>
<path d="M122.182 88.2424H115.394V95.0303H122.182V88.2424Z" fill="white"/>
<path d="M142.545 88.2424H135.758V95.0303H142.545V88.2424Z" fill="white"/>
<path d="M149.333 88.2424H142.545V95.0303H149.333V88.2424Z" fill="white"/>
<path d="M169.697 88.2424H162.909V95.0303H169.697V88.2424Z" fill="white"/>
<path d="M176.485 88.2424H169.697V95.0303H176.485V88.2424Z" fill="white"/>
<path d="M203.636 88.2424H196.848V95.0303H203.636V88.2424Z" fill="white"/>
<path d="M210.424 88.2424H203.636V95.0303H210.424V88.2424Z" fill="white"/>
<path d="M217.212 88.2424H210.424V95.0303H217.212V88.2424Z" fill="white"/>
<path d="M6.78788 95.0303H0V101.818H6.78788V95.0303Z" fill="white"/>
<path d="M27.1515 95.0303H20.3636V101.818H27.1515V95.0303Z" fill="white"/>
<path d="M33.9394 95.0303H27.1515V101.818H33.9394V95.0303Z" fill="white"/>
<path d="M47.5152 95.0303H40.7273V101.818H47.5152V95.0303Z" fill="white"/>
<path d="M54.303 95.0303H47.5152V101.818H54.303V95.0303Z" fill="white"/>
<path d="M81.4546 95.0303H74.6667V101.818H81.4546V95.0303Z" fill="white"/>
<path d="M88.2424 95.0303H81.4546V101.818H88.2424V95.0303Z" fill="white"/>
<path d="M101.818 95.0303H95.0303V101.818H101.818V95.0303Z" fill="white"/>
<path d="M122.182 95.0303H115.394V101.818H122.182V95.0303Z" fill="white"/>
<path d="M128.97 95.0303H122.182V101.818H128.97V95.0303Z" fill="white"/>
<path d="M135.758 95.0303H128.97V101.818H135.758V95.0303Z" fill="white"/>
<path d="M149.333 95.0303H142.545V101.818H149.333V95.0303Z" fill="white"/>
<path d="M156.121 95.0303H149.333V101.818H156.121V95.0303Z" fill="white"/>
<path d="M162.909 95.0303H156.121V101.818H162.909V95.0303Z" fill="white"/>
<path d="M176.485 95.0303H169.697V101.818H176.485V95.0303Z" fill="white"/>
<path d="M183.273 95.0303H176.485V101.818H183.273V95.0303Z" fill="white"/>
<path d="M210.424 95.0303H203.636V101.818H210.424V95.0303Z" fill="white"/>
<path d="M217.212 95.0303H210.424V101.818H217.212V95.0303Z" fill="white"/>
<path d="M6.78788 101.818H0V108.606H6.78788V101.818Z" fill="white"/>
<path d="M20.3636 101.818H13.5758V108.606H20.3636V101.818Z" fill="white"/>
<path d="M54.303 101.818H47.5152V108.606H54.303V101.818Z" fill="white"/>
<path d="M67.8788 101.818H61.0909V108.606H67.8788V101.818Z" fill="white"/>
<path d="M74.6667 101.818H67.8788V108.606H74.6667V101.818Z" fill="white"/>
<path d="M88.2424 101.818H81.4546V108.606H88.2424V101.818Z" fill="white"/>
<path d="M115.394 101.818H108.606V108.606H115.394V101.818Z" fill="white"/>
<path d="M122.182 101.818H115.394V108.606H122.182V101.818Z" fill="white"/>
<path d="M128.97 101.818H122.182V108.606H128.97V101.818Z" fill="white"/>
<path d="M135.758 101.818H128.97V108.606H135.758V101.818Z" fill="white"/>
<path d="M156.121 101.818H149.333V108.606H156.121V101.818Z" fill="white"/>
<path d="M162.909 101.818H156.121V108.606H162.909V101.818Z" fill="white"/>
<path d="M176.485 101.818H169.697V108.606H176.485V101.818Z" fill="white"/>
<path d="M183.273 101.818H176.485V108.606H183.273V101.818Z" fill="white"/>
<path d="M224 101.818H217.212V108.606H224V101.818Z" fill="white"/>
<path d="M6.78788 108.606H0V115.394H6.78788V108.606Z" fill="white"/>
<path d="M13.5758 108.606H6.78788V115.394H13.5758V108.606Z" fill="white"/>
<path d="M40.7273 108.606H33.9394V115.394H40.7273V108.606Z" fill="white"/>
<path d="M47.5152 108.606H40.7273V115.394H47.5152V108.606Z" fill="white"/>
<path d="M54.303 108.606H47.5152V115.394H54.303V108.606Z" fill="white"/>
<path d="M67.8788 108.606H61.0909V115.394H67.8788V108.606Z" fill="white"/>
<path d="M95.0303 108.606H88.2424V115.394H95.0303V108.606Z" fill="white"/>
<path d="M101.818 108.606H95.0303V115.394H101.818V108.606Z" fill="white"/>
<path d="M122.182 108.606H115.394V115.394H122.182V108.606Z" fill="white"/>
<path d="M128.97 108.606H122.182V115.394H128.97V108.606Z" fill="white"/>
<path d="M142.545 108.606H135.758V115.394H142.545V108.606Z" fill="white"/>
<path d="M162.909 108.606H156.121V115.394H162.909V108.606Z" fill="white"/>
<path d="M169.697 108.606H162.909V115.394H169.697V108.606Z" fill="white"/>
<path d="M176.485 108.606H169.697V115.394H176.485V108.606Z" fill="white"/>
<path d="M190.061 108.606H183.273V115.394H190.061V108.606Z" fill="white"/>
<path d="M203.636 108.606H196.848V115.394H203.636V108.606Z" fill="white"/>
<path d="M210.424 108.606H203.636V115.394H210.424V108.606Z" fill="white"/>
<path d="M224 108.606H217.212V115.394H224V108.606Z" fill="white"/>
<path d="M6.78788 115.394H0V122.182H6.78788V115.394Z" fill="white"/>
<path d="M13.5758 115.394H6.78788V122.182H13.5758V115.394Z" fill="white"/>
<path d="M27.1515 115.394H20.3636V122.182H27.1515V115.394Z" fill="white"/>
<path d="M33.9394 115.394H27.1515V122.182H33.9394V115.394Z" fill="white"/>
<path d="M54.303 115.394H47.5152V122.182H54.303V115.394Z" fill="white"/>
<path d="M74.6667 115.394H67.8788V122.182H74.6667V115.394Z" fill="white"/>
<path d="M81.4546 115.394H74.6667V122.182H81.4546V115.394Z" fill="white"/>
<path d="M95.0303 115.394H88.2424V122.182H95.0303V115.394Z" fill="white"/>
<path d="M108.606 115.394H101.818V122.182H108.606V115.394Z" fill="white"/>
<path d="M122.182 115.394H115.394V122.182H122.182V115.394Z" fill="white"/>
<path d="M162.909 115.394H156.121V122.182H162.909V115.394Z" fill="white"/>
<path d="M169.697 115.394H162.909V122.182H169.697V115.394Z" fill="white"/>
<path d="M183.273 115.394H176.485V122.182H183.273V115.394Z" fill="white"/>
<path d="M190.061 115.394H183.273V122.182H190.061V115.394Z" fill="white"/>
<path d="M210.424 115.394H203.636V122.182H210.424V115.394Z" fill="white"/>
<path d="M217.212 115.394H210.424V122.182H217.212V115.394Z" fill="white"/>
<path d="M224 115.394H217.212V122.182H224V115.394Z" fill="white"/>
<path d="M6.78788 122.182H0V128.97H6.78788V122.182Z" fill="white"/>
<path d="M27.1515 122.182H20.3636V128.97H27.1515V122.182Z" fill="white"/>
<path d="M33.9394 122.182H27.1515V128.97H33.9394V122.182Z" fill="white"/>
<path d="M47.5152 122.182H40.7273V128.97H47.5152V122.182Z" fill="white"/>
<path d="M61.0909 122.182H54.303V128.97H61.0909V122.182Z" fill="white"/>
<path d="M67.8788 122.182H61.0909V128.97H67.8788V122.182Z" fill="white"/>
<path d="M81.4546 122.182H74.6667V128.97H81.4546V122.182Z" fill="white"/>
<path d="M88.2424 122.182H81.4546V128.97H88.2424V122.182Z" fill="white"/>
<path d="M122.182 122.182H115.394V128.97H122.182V122.182Z" fill="white"/>
<path d="M128.97 122.182H122.182V128.97H128.97V122.182Z" fill="white"/>
<path d="M149.333 122.182H142.545V128.97H149.333V122.182Z" fill="white"/>
<path d="M162.909 122.182H156.121V128.97H162.909V122.182Z" fill="white"/>
<path d="M190.061 122.182H183.273V128.97H190.061V122.182Z" fill="white"/>
<path d="M196.848 122.182H190.061V128.97H196.848V122.182Z" fill="white"/>
<path d="M210.424 122.182H203.636V128.97H210.424V122.182Z" fill="white"/>
<path d="M217.212 122.182H210.424V128.97H217.212V122.182Z" fill="white"/>
<path d="M13.5758 128.97L6.78788 128.97V135.758H13.5758V128.97Z" fill="white"/>
<path d="M33.9394 128.97H27.1515V135.758H33.9394V128.97Z" fill="white"/>
<path d="M40.7273 128.97H33.9394V135.758H40.7273V128.97Z" fill="white"/>
<path d="M61.0909 128.97H54.303V135.758H61.0909V128.97Z" fill="white"/>
<path d="M88.2424 128.97H81.4546V135.758H88.2424V128.97Z" fill="white"/>
<path d="M95.0303 128.97L88.2424 128.97V135.758H95.0303V128.97Z" fill="white"/>
<path d="M101.818 128.97H95.0303V135.758H101.818V128.97Z" fill="white"/>
<path d="M108.606 128.97H101.818V135.758H108.606V128.97Z" fill="white"/>
<path d="M135.758 128.97L128.97 128.97L128.97 135.758H135.758V128.97Z" fill="white"/>
<path d="M149.333 128.97H142.545V135.758H149.333V128.97Z" fill="white"/>
<path d="M169.697 128.97L162.909 128.97V135.758H169.697V128.97Z" fill="white"/>
<path d="M203.636 128.97H196.848V135.758H203.636V128.97Z" fill="white"/>
<path d="M210.424 128.97H203.636V135.758H210.424V128.97Z" fill="white"/>
<path d="M217.212 128.97H210.424V135.758H217.212V128.97Z" fill="white"/>
<path d="M20.3636 135.758H13.5758V142.545H20.3636V135.758Z" fill="white"/>
<path d="M27.1515 135.758H20.3636V142.545H27.1515V135.758Z" fill="white"/>
<path d="M33.9394 135.758H27.1515V142.545H33.9394V135.758Z" fill="white"/>
<path d="M47.5152 135.758H40.7273V142.545H47.5152V135.758Z" fill="white"/>
<path d="M61.0909 135.758H54.303V142.545H61.0909V135.758Z" fill="white"/>
<path d="M81.4546 135.758H74.6667V142.545H81.4546V135.758Z" fill="white"/>
<path d="M88.2424 135.758H81.4546V142.545H88.2424V135.758Z" fill="white"/>
<path d="M108.606 135.758H101.818V142.545H108.606V135.758Z" fill="white"/>
<path d="M128.97 135.758H122.182V142.545H128.97L128.97 135.758Z" fill="white"/>
<path d="M135.758 135.758H128.97L128.97 142.545H135.758V135.758Z" fill="white"/>
<path d="M149.333 135.758H142.545V142.545H149.333V135.758Z" fill="white"/>
<path d="M156.121 135.758H149.333V142.545H156.121V135.758Z" fill="white"/>
<path d="M169.697 135.758H162.909V142.545H169.697V135.758Z" fill="white"/>
<path d="M196.848 135.758H190.061V142.545H196.848V135.758Z" fill="white"/>
<path d="M217.212 135.758H210.424V142.545H217.212V135.758Z" fill="white"/>
<path d="M224 135.758H217.212V142.545H224V135.758Z" fill="white"/>
<path d="M6.78788 142.545H0V149.333H6.78788V142.545Z" fill="white"/>
<path d="M20.3636 142.545H13.5758V149.333H20.3636V142.545Z" fill="white"/>
<path d="M54.303 142.545H47.5152V149.333H54.303V142.545Z" fill="white"/>
<path d="M61.0909 142.545H54.303V149.333H61.0909V142.545Z" fill="white"/>
<path d="M67.8788 142.545H61.0909V149.333H67.8788V142.545Z" fill="white"/>
<path d="M81.4546 142.545H74.6667V149.333H81.4546V142.545Z" fill="white"/>
<path d="M95.0303 142.545H88.2424V149.333H95.0303V142.545Z" fill="white"/>
<path d="M108.606 142.545H101.818V149.333H108.606V142.545Z" fill="white"/>
<path d="M115.394 142.545H108.606V149.333H115.394V142.545Z" fill="white"/>
<path d="M122.182 142.545H115.394V149.333H122.182V142.545Z" fill="white"/>
<path d="M156.121 142.545H149.333V149.333H156.121V142.545Z" fill="white"/>
<path d="M162.909 142.545H156.121V149.333H162.909V142.545Z" fill="white"/>
<path d="M169.697 142.545H162.909V149.333H169.697V142.545Z" fill="white"/>
<path d="M183.273 142.545H176.485V149.333H183.273V142.545Z" fill="white"/>
<path d="M190.061 142.545H183.273V149.333H190.061V142.545Z" fill="white"/>
<path d="M210.424 142.545H203.636V149.333H210.424V142.545Z" fill="white"/>
<path d="M217.212 142.545H210.424V149.333H217.212V142.545Z" fill="white"/>
<path d="M40.7273 149.333H33.9394V156.121H40.7273V149.333Z" fill="white"/>
<path d="M47.5152 149.333H40.7273V156.121H47.5152V149.333Z" fill="white"/>
<path d="M61.0909 149.333H54.303V156.121H61.0909V149.333Z" fill="white"/>
<path d="M81.4546 149.333H74.6667V156.121H81.4546V149.333Z" fill="white"/>
<path d="M108.606 149.333H101.818V156.121H108.606V149.333Z" fill="white"/>
<path d="M115.394 149.333H108.606V156.121H115.394V149.333Z" fill="white"/>
<path d="M122.182 149.333H115.394V156.121H122.182V149.333Z" fill="white"/>
<path d="M135.758 149.333H128.97V156.121H135.758V149.333Z" fill="white"/>
<path d="M142.545 149.333H135.758V156.121H142.545V149.333Z" fill="white"/>
<path d="M162.909 149.333H156.121V156.121H162.909V149.333Z" fill="white"/>
<path d="M183.273 149.333H176.485V156.121H183.273V149.333Z" fill="white"/>
<path d="M203.636 149.333H196.848V156.121H203.636V149.333Z" fill="white"/>
<path d="M210.424 149.333H203.636V156.121H210.424V149.333Z" fill="white"/>
<path d="M217.212 149.333H210.424V156.121H217.212V149.333Z" fill="white"/>
<path d="M224 149.333H217.212V156.121H224V149.333Z" fill="white"/>
<path d="M6.78788 156.121H0V162.909H6.78788V156.121Z" fill="white"/>
<path d="M20.3636 156.121H13.5758V162.909H20.3636V156.121Z" fill="white"/>
<path d="M27.1515 156.121H20.3636V162.909H27.1515V156.121Z" fill="white"/>
<path d="M33.9394 156.121H27.1515V162.909H33.9394V156.121Z" fill="white"/>
<path d="M54.303 156.121H47.5152V162.909H54.303V156.121Z" fill="white"/>
<path d="M67.8788 156.121H61.0909V162.909H67.8788V156.121Z" fill="white"/>
<path d="M74.6667 156.121H67.8788V162.909H74.6667V156.121Z" fill="white"/>
<path d="M81.4546 156.121H74.6667V162.909H81.4546V156.121Z" fill="white"/>
<path d="M88.2424 156.121H81.4546V162.909H88.2424V156.121Z" fill="white"/>
<path d="M95.0303 156.121H88.2424V162.909H95.0303V156.121Z" fill="white"/>
<path d="M101.818 156.121H95.0303V162.909H101.818V156.121Z" fill="white"/>
<path d="M122.182 156.121H115.394V162.909H122.182V156.121Z" fill="white"/>
<path d="M128.97 156.121H122.182V162.909H128.97L128.97 156.121Z" fill="white"/>
<path d="M149.333 156.121H142.545V162.909H149.333V156.121Z" fill="white"/>
<path d="M156.121 156.121H149.333V162.909H156.121V156.121Z" fill="white"/>
<path d="M162.909 156.121H156.121V162.909H162.909V156.121Z" fill="white"/>
<path d="M176.485 156.121H169.697V162.909H176.485V156.121Z" fill="white"/>
<path d="M203.636 156.121H196.848V162.909H203.636V156.121Z" fill="white"/>
<path d="M224 156.121H217.212V162.909H224V156.121Z" fill="white"/>
<path d="M13.5758 162.909H6.78788V169.697H13.5758V162.909Z" fill="white"/>
<path d="M20.3636 162.909H13.5758V169.697H20.3636V162.909Z" fill="white"/>
<path d="M40.7273 162.909H33.9394V169.697H40.7273V162.909Z" fill="white"/>
<path d="M47.5152 162.909H40.7273V169.697H47.5152V162.909Z" fill="white"/>
<path d="M54.303 162.909H47.5152V169.697H54.303V162.909Z" fill="white"/>
<path d="M61.0909 162.909H54.303V169.697H61.0909V162.909Z" fill="white"/>
<path d="M74.6667 162.909H67.8788V169.697H74.6667V162.909Z" fill="white"/>
<path d="M101.818 162.909H95.0303V169.697H101.818V162.909Z" fill="white"/>
<path d="M115.394 162.909H108.606V169.697H115.394V162.909Z" fill="white"/>
<path d="M128.97 162.909H122.182V169.697H128.97V162.909Z" fill="white"/>
<path d="M156.121 162.909H149.333V169.697H156.121V162.909Z" fill="white"/>
<path d="M162.909 162.909H156.121V169.697H162.909V162.909Z" fill="white"/>
<path d="M169.697 162.909H162.909V169.697H169.697V162.909Z" fill="white"/>
<path d="M176.485 162.909H169.697V169.697H176.485V162.909Z" fill="white"/>
<path d="M183.273 162.909H176.485V169.697H183.273V162.909Z" fill="white"/>
<path d="M190.061 162.909H183.273V169.697H190.061V162.909Z" fill="white"/>
<path d="M196.848 162.909H190.061V169.697H196.848V162.909Z" fill="white"/>
<path d="M203.636 162.909H196.848V169.697H203.636V162.909Z" fill="white"/>
<path d="M217.212 162.909H210.424V169.697H217.212V162.909Z" fill="white"/>
<path d="M224 162.909H217.212V169.697H224V162.909Z" fill="white"/>
<path d="M61.0909 169.697H54.303V176.485H61.0909V169.697Z" fill="white"/>
<path d="M74.6667 169.697H67.8788V176.485H74.6667V169.697Z" fill="white"/>
<path d="M88.2424 169.697H81.4546V176.485H88.2424V169.697Z" fill="white"/>
<path d="M95.0303 169.697H88.2424V176.485H95.0303V169.697Z" fill="white"/>
<path d="M149.333 169.697H142.545V176.485H149.333V169.697Z" fill="white"/>
<path d="M169.697 169.697H162.909V176.485H169.697V169.697Z" fill="white"/>
<path d="M196.848 169.697H190.061V176.485H196.848V169.697Z" fill="white"/>
<path d="M6.78788 176.485H0V183.273H6.78788V176.485Z" fill="white"/>
<path d="M13.5758 176.485H6.78788V183.273H13.5758V176.485Z" fill="white"/>
<path d="M20.3636 176.485H13.5758V183.273H20.3636V176.485Z" fill="white"/>
<path d="M27.1515 176.485H20.3636V183.273H27.1515V176.485Z" fill="white"/>
<path d="M33.9394 176.485H27.1515V183.273H33.9394V176.485Z" fill="white"/>
<path d="M40.7273 176.485H33.9394V183.273H40.7273V176.485Z" fill="white"/>
<path d="M47.5152 176.485H40.7273V183.273H47.5152V176.485Z" fill="white"/>
<path d="M61.0909 176.485H54.303V183.273H61.0909V176.485Z" fill="white"/>
<path d="M67.8788 176.485H61.0909V183.273H67.8788V176.485Z" fill="white"/>
<path d="M74.6667 176.485H67.8788V183.273H74.6667V176.485Z" fill="white"/>
<path d="M88.2424 176.485H81.4546V183.273H88.2424V176.485Z" fill="white"/>
<path d="M115.394 176.485H108.606V183.273H115.394V176.485Z" fill="white"/>
<path d="M142.545 176.485H135.758V183.273H142.545V176.485Z" fill="white"/>
<path d="M149.333 176.485H142.545V183.273H149.333V176.485Z" fill="white"/>
<path d="M162.909 176.485H156.121V183.273H162.909V176.485Z" fill="white"/>
<path d="M169.697 176.485H162.909V183.273H169.697V176.485Z" fill="white"/>
<path d="M183.273 176.485H176.485V183.273H183.273V176.485Z" fill="white"/>
<path d="M196.848 176.485H190.061V183.273H196.848V176.485Z" fill="white"/>
<path d="M203.636 176.485H196.848V183.273H203.636V176.485Z" fill="white"/>
<path d="M210.424 176.485H203.636V183.273H210.424V176.485Z" fill="white"/>
<path d="M224 176.485H217.212V183.273H224V176.485Z" fill="white"/>
<path d="M6.78788 183.273H0V190.061H6.78788V183.273Z" fill="white"/>
<path d="M47.5152 183.273H40.7273V190.061H47.5152V183.273Z" fill="white"/>
<path d="M61.0909 183.273H54.303V190.061H61.0909V183.273Z" fill="white"/>
<path d="M67.8788 183.273H61.0909V190.061H67.8788V183.273Z" fill="white"/>
<path d="M74.6667 183.273H67.8788V190.061H74.6667V183.273Z" fill="white"/>
<path d="M81.4546 183.273H74.6667V190.061H81.4546V183.273Z" fill="white"/>
<path d="M95.0303 183.273H88.2424V190.061H95.0303V183.273Z" fill="white"/>
<path d="M149.333 183.273H142.545V190.061H149.333V183.273Z" fill="white"/>
<path d="M162.909 183.273H156.121V190.061H162.909V183.273Z" fill="white"/>
<path d="M169.697 183.273H162.909V190.061H169.697V183.273Z" fill="white"/>
<path d="M196.848 183.273H190.061V190.061H196.848V183.273Z" fill="white"/>
<path d="M217.212 183.273H210.424V190.061H217.212V183.273Z" fill="white"/>
<path d="M224 183.273H217.212V190.061H224V183.273Z" fill="white"/>
<path d="M6.78788 190.061H0V196.848H6.78788V190.061Z" fill="white"/>
<path d="M20.3636 190.061H13.5758V196.848H20.3636V190.061Z" fill="white"/>
<path d="M27.1515 190.061H20.3636V196.848H27.1515V190.061Z" fill="white"/>
<path d="M33.9394 190.061H27.1515V196.848H33.9394V190.061Z" fill="white"/>
<path d="M47.5152 190.061H40.7273V196.848H47.5152V190.061Z" fill="white"/>
<path d="M61.0909 190.061H54.303V196.848H61.0909V190.061Z" fill="white"/>
<path d="M74.6667 190.061H67.8788V196.848H74.6667V190.061Z" fill="white"/>
<path d="M81.4546 190.061H74.6667V196.848H81.4546V190.061Z" fill="white"/>
<path d="M88.2424 190.061H81.4546V196.848H88.2424V190.061Z" fill="white"/>
<path d="M101.818 190.061H95.0303V196.848H101.818V190.061Z" fill="white"/>
<path d="M108.606 190.061H101.818V196.848H108.606V190.061Z" fill="white"/>
<path d="M115.394 190.061H108.606V196.848H115.394V190.061Z" fill="white"/>
<path d="M128.97 190.061H122.182V196.848H128.97V190.061Z" fill="white"/>
<path d="M135.758 190.061H128.97V196.848H135.758V190.061Z" fill="white"/>
<path d="M142.545 190.061H135.758V196.848H142.545V190.061Z" fill="white"/>
<path d="M156.121 190.061H149.333V196.848H156.121V190.061Z" fill="white"/>
<path d="M169.697 190.061H162.909V196.848H169.697V190.061Z" fill="white"/>
<path d="M176.485 190.061H169.697V196.848H176.485V190.061Z" fill="white"/>
<path d="M183.273 190.061H176.485V196.848H183.273V190.061Z" fill="white"/>
<path d="M190.061 190.061H183.273V196.848H190.061V190.061Z" fill="white"/>
<path d="M196.848 190.061H190.061V196.848H196.848V190.061Z" fill="white"/>
<path d="M203.636 190.061H196.848V196.848H203.636V190.061Z" fill="white"/>
<path d="M210.424 190.061H203.636V196.848H210.424V190.061Z" fill="white"/>
<path d="M217.212 190.061H210.424V196.848H217.212V190.061Z" fill="white"/>
<path d="M224 190.061H217.212V196.848H224V190.061Z" fill="white"/>
<path d="M6.78788 196.848H0V203.636H6.78788V196.848Z" fill="white"/>
<path d="M20.3636 196.848H13.5758V203.636H20.3636V196.848Z" fill="white"/>
<path d="M27.1515 196.848H20.3636V203.636H27.1515V196.848Z" fill="white"/>
<path d="M33.9394 196.848H27.1515V203.636H33.9394V196.848Z" fill="white"/>
<path d="M47.5152 196.848H40.7273V203.636H47.5152V196.848Z" fill="white"/>
<path d="M61.0909 196.848H54.303V203.636H61.0909V196.848Z" fill="white"/>
<path d="M67.8788 196.848H61.0909V203.636H67.8788V196.848Z" fill="white"/>
<path d="M88.2424 196.848H81.4546V203.636H88.2424V196.848Z" fill="white"/>
<path d="M95.0303 196.848H88.2424V203.636H95.0303V196.848Z" fill="white"/>
<path d="M101.818 196.848H95.0303V203.636H101.818V196.848Z" fill="white"/>
<path d="M203.636 196.848H196.848V203.636H203.636V196.848Z" fill="white"/>
<path d="M210.424 196.848H203.636V203.636H210.424V196.848Z" fill="white"/>
<path d="M6.78788 203.636H0V210.424H6.78788V203.636Z" fill="white"/>
<path d="M20.3636 203.636H13.5758V210.424H20.3636V203.636Z" fill="white"/>
<path d="M27.1515 203.636H20.3636V210.424H27.1515V203.636Z" fill="white"/>
<path d="M33.9394 203.636H27.1515V210.424H33.9394V203.636Z" fill="white"/>
<path d="M47.5152 203.636H40.7273V210.424H47.5152V203.636Z" fill="white"/>
<path d="M74.6667 203.636H67.8788V210.424H74.6667V203.636Z" fill="white"/>
<path d="M95.0303 203.636H88.2424V210.424H95.0303V203.636Z" fill="white"/>
<path d="M149.333 203.636H142.545V210.424H149.333V203.636Z" fill="white"/>
<path d="M176.485 203.636H169.697V210.424H176.485V203.636Z" fill="white"/>
<path d="M210.424 203.636H203.636V210.424H210.424V203.636Z" fill="white"/>
<path d="M6.78788 210.424H0V217.212H6.78788V210.424Z" fill="white"/>
<path d="M47.5152 210.424H40.7273V217.212H47.5152V210.424Z" fill="white"/>
<path d="M67.8788 210.424H61.0909V217.212H67.8788V210.424Z" fill="white"/>
<path d="M74.6667 210.424H67.8788V217.212H74.6667V210.424Z" fill="white"/>
<path d="M88.2424 210.424H81.4546V217.212H88.2424V210.424Z" fill="white"/>
<path d="M95.0303 210.424H88.2424V217.212H95.0303V210.424Z" fill="white"/>
<path d="M101.818 210.424H95.0303V217.212H101.818V210.424Z" fill="white"/>
<path d="M115.394 210.424H108.606V217.212H115.394V210.424Z" fill="white"/>
<path d="M122.182 210.424H115.394V217.212H122.182V210.424Z" fill="white"/>
<path d="M142.545 210.424H135.758V217.212H142.545V210.424Z" fill="white"/>
<path d="M156.121 210.424H149.333V217.212H156.121V210.424Z" fill="white"/>
<path d="M196.848 210.424H190.061V217.212H196.848V210.424Z" fill="white"/>
<path d="M203.636 210.424H196.848V217.212H203.636V210.424Z" fill="white"/>
<path d="M6.78788 217.212H0V224H6.78788V217.212Z" fill="white"/>
<path d="M13.5758 217.212H6.78788V224H13.5758V217.212Z" fill="white"/>
<path d="M20.3636 217.212H13.5758V224H20.3636V217.212Z" fill="white"/>
<path d="M27.1515 217.212H20.3636V224H27.1515V217.212Z" fill="white"/>
<path d="M33.9394 217.212H27.1515V224H33.9394V217.212Z" fill="white"/>
<path d="M40.7273 217.212H33.9394V224H40.7273V217.212Z" fill="white"/>
<path d="M47.5152 217.212H40.7273V224H47.5152V217.212Z" fill="white"/>
<path d="M61.0909 217.212H54.303V224H61.0909V217.212Z" fill="white"/>
<path d="M67.8788 217.212H61.0909V224H67.8788V217.212Z" fill="white"/>
<path d="M88.2424 217.212H81.4546V224H88.2424V217.212Z" fill="white"/>
<path d="M108.606 217.212H101.818V224H108.606V217.212Z" fill="white"/>
<path d="M115.394 217.212H108.606V224H115.394V217.212Z" fill="white"/>
<path d="M135.758 217.212H128.97V224H135.758V217.212Z" fill="white"/>
<path d="M149.333 217.212H142.545V224H149.333V217.212Z" fill="white"/>
<path d="M162.909 217.212H156.121V224H162.909V217.212Z" fill="white"/>
<path d="M190.061 217.212H183.273V224H190.061V217.212Z" fill="white"/>
<path d="M196.848 217.212H190.061V224H196.848V217.212Z" fill="white"/>
<path d="M224 217.212H217.212V224H224V217.212Z" fill="white"/>
</svg>
