<svg width="28" height="28" viewBox="0 0 28 28" fill="none" xmlns="http://www.w3.org/2000/svg">
<path fill-rule="evenodd" clip-rule="evenodd" d="M5.29634 2.33334H9.23967C10.8847 2.33334 12.203 3.67501 12.203 5.32118V9.29834C12.203 10.955 10.8847 12.285 9.23967 12.285H5.29634C3.66301 12.285 2.33301 10.955 2.33301 9.29834V5.32118C2.33301 3.67501 3.66301 2.33334 5.29634 2.33334ZM5.29634 15.7147H9.23967C10.8847 15.7147 12.203 17.0458 12.203 18.7025V22.6797C12.203 24.3247 10.8847 25.6663 9.23967 25.6663H5.29634C3.66301 25.6663 2.33301 24.3247 2.33301 22.6797V18.7025C2.33301 17.0458 3.66301 15.7147 5.29634 15.7147ZM22.7035 2.33334H18.7602C17.1152 2.33334 15.7969 3.67501 15.7969 5.32118V9.29834C15.7969 10.955 17.1152 12.285 18.7602 12.285H22.7035C24.3369 12.285 25.6669 10.955 25.6669 9.29834V5.32118C25.6669 3.67501 24.3369 2.33334 22.7035 2.33334ZM18.7602 15.7147H22.7035C24.3369 15.7147 25.6669 17.0458 25.6669 18.7025V22.6797C25.6669 24.3247 24.3369 25.6663 22.7035 25.6663H18.7602C17.1152 25.6663 15.7969 24.3247 15.7969 22.6797V18.7025C15.7969 17.0458 17.1152 15.7147 18.7602 15.7147Z" fill="#1AADB6"/>
</svg>
